<?xml version="1.0" encoding="utf-8"?>
<!DOCTYPE svg PUBLIC "-//W3C//DTD SVG 1.1//EN" "http://www.w3.org/Graphics/SVG/1.1/DTD/svg11.dtd">
<svg version="1.1" id="Layer_1" xmlns="http://www.w3.org/2000/svg" xmlns:xlink="http://www.w3.org/1999/xlink" x="0px" y="0px"
width="231px" height="231px" viewBox="0 0 231 231" enable-background="new 0 0 231 231" xml:space="preserve">
<rect x="0" y="0" width="231" height="231" fill="rgb(255,255,255)" /><g transform="translate(14,14)"><g transform="translate(77,0) scale(0.07,0.07)"><g transform="" style="fill: rgb(51, 63, 112);">
<g>
	<path d="M100,34.375V0H34.375C24.87,0,16.764,3.353,10.059,10.059S0,24.87,0,34.375v31.25c0,9.505,3.353,17.611,10.059,24.316
		C16.765,96.646,24.87,100,34.375,100H100V34.375z"/>
</g>
</g></g><g transform="translate(84,0) scale(0.07,0.07)"><g transform="" style="fill: rgb(51, 63, 112);">
<g>
	<path d="M100,34.375c0-9.505-3.354-17.611-10.059-24.316C83.236,3.354,75.13,0,65.625,0H0v100h100V34.375z"/>
</g>
</g></g><g transform="translate(98,0) scale(0.07,0.07)"><g transform="" style="fill: rgb(51, 63, 112);">
<g>
	<path d="M100,65.625c0,9.507-3.355,17.611-10.059,24.316C83.236,96.645,75.132,100,65.625,100h-31.25
		c-9.504,0-17.61-3.355-24.315-10.059C3.354,83.236,0,75.132,0,65.625v-31.25c0-9.504,3.353-17.61,10.059-24.315
		C16.766,3.354,24.871,0,34.375,0h31.25c9.508,0,17.613,3.353,24.316,10.059C96.646,16.766,100,24.871,100,34.375V65.625z"/>
</g>
</g></g><g transform="translate(119,0) scale(0.07,0.07)"><g transform="" style="fill: rgb(51, 63, 112);">
<g>
	<path d="M100,34.375V0H34.375C24.87,0,16.764,3.353,10.059,10.059S0,24.87,0,34.375v31.25c0,9.505,3.353,17.611,10.059,24.316
		C16.765,96.646,24.87,100,34.375,100H100V34.375z"/>
</g>
</g></g><g transform="translate(126,0) scale(0.07,0.07)"><g transform="" style="fill: rgb(51, 63, 112);">
<rect width="100" height="100"/>
</g></g><g transform="translate(133,0) scale(0.07,0.07)"><g transform="" style="fill: rgb(51, 63, 112);">
<g>
	<path d="M100,34.375c0-9.505-3.354-17.611-10.059-24.316C83.236,3.354,75.13,0,65.625,0H0v100h100V34.375z"/>
</g>
</g></g><g transform="translate(56,7) scale(0.07,0.07)"><g transform="" style="fill: rgb(51, 63, 112);">
<g>
	<path d="M100,34.375V0H34.375C24.87,0,16.764,3.353,10.059,10.059S0,24.87,0,34.375v31.25c0,9.505,3.353,17.611,10.059,24.316
		C16.765,96.646,24.87,100,34.375,100H100V34.375z"/>
</g>
</g></g><g transform="translate(63,7) scale(0.07,0.07)"><g transform="" style="fill: rgb(51, 63, 112);">
<rect width="100" height="100"/>
</g></g><g transform="translate(70,7) scale(0.07,0.07)"><g transform="" style="fill: rgb(51, 63, 112);">
<g>
	<path d="M100,34.375c0-9.505-3.354-17.611-10.059-24.316C83.236,3.354,75.13,0,65.625,0H0v100h100V34.375z"/>
</g>
</g></g><g transform="translate(84,7) scale(0.07,0.07)"><g transform="" style="fill: rgb(51, 63, 112);">
<rect width="100" height="100"/>
</g></g><g transform="translate(91,7) scale(0.07,0.07)"><g transform="" style="fill: rgb(51, 63, 112);">
<g>
	<path d="M65.625,0H0v100h65.625c9.505,0,17.611-3.354,24.316-10.059C96.646,83.236,100,75.13,100,65.625v-31.25
		c0-9.505-3.354-17.611-10.059-24.316C83.236,3.354,75.13,0,65.625,0z"/>
</g>
</g></g><g transform="translate(126,7) scale(0.07,0.07)"><g transform="" style="fill: rgb(51, 63, 112);">
<g>
	<path d="M100,0H0v65.625c0,9.505,3.353,17.611,10.059,24.316C16.765,96.646,24.87,100,34.375,100H100V0z"/>
</g>
</g></g><g transform="translate(133,7) scale(0.07,0.07)"><g transform="" style="fill: rgb(51, 63, 112);">
<g>
	<path d="M100,0H0v100h65.625c9.505,0,17.611-3.354,24.316-10.059C96.646,83.236,100,75.13,100,65.625V0z"/>
</g>
</g></g><g transform="translate(63,14) scale(0.07,0.07)"><g transform="" style="fill: rgb(51, 63, 112);">
<g>
	<path d="M100,0H0v65.625c0,9.505,3.353,17.611,10.059,24.316C16.765,96.646,24.87,100,34.375,100H100V0z"/>
</g>
</g></g><g transform="translate(70,14) scale(0.07,0.07)"><g transform="" style="fill: rgb(51, 63, 112);">
<g>
	<path d="M100,0H0v100h65.625c9.505,0,17.611-3.354,24.316-10.059C96.646,83.236,100,75.13,100,65.625V0z"/>
</g>
</g></g><g transform="translate(84,14) scale(0.07,0.07)"><g transform="" style="fill: rgb(51, 63, 112);">
<rect width="100" height="100"/>
</g></g><g transform="translate(105,14) scale(0.07,0.07)"><g transform="" style="fill: rgb(51, 63, 112);">
<g>
	<path d="M100,65.625c0,9.507-3.355,17.611-10.059,24.316C83.236,96.645,75.132,100,65.625,100h-31.25
		c-9.504,0-17.61-3.355-24.315-10.059C3.354,83.236,0,75.132,0,65.625v-31.25c0-9.504,3.353-17.61,10.059-24.315
		C16.766,3.354,24.871,0,34.375,0h31.25c9.508,0,17.613,3.353,24.316,10.059C96.646,16.766,100,24.871,100,34.375V65.625z"/>
</g>
</g></g><g transform="translate(140,14) scale(0.07,0.07)"><g transform="" style="fill: rgb(51, 63, 112);">
<g>
	<path d="M100,65.625c0,9.507-3.355,17.611-10.059,24.316C83.236,96.645,75.132,100,65.625,100h-31.25
		c-9.504,0-17.61-3.355-24.315-10.059C3.354,83.236,0,75.132,0,65.625v-31.25c0-9.504,3.353-17.61,10.059-24.315
		C16.766,3.354,24.871,0,34.375,0h31.25c9.508,0,17.613,3.353,24.316,10.059C96.646,16.766,100,24.871,100,34.375V65.625z"/>
</g>
</g></g><g transform="translate(77,21) scale(0.07,0.07)"><g transform="" style="fill: rgb(51, 63, 112);">
<g>
	<path d="M100,34.375V0H34.375C24.87,0,16.764,3.353,10.059,10.059S0,24.87,0,34.375v31.25c0,9.505,3.353,17.611,10.059,24.316
		C16.765,96.646,24.87,100,34.375,100H100V34.375z"/>
</g>
</g></g><g transform="translate(84,21) scale(0.07,0.07)"><g transform="" style="fill: rgb(51, 63, 112);">
<rect width="100" height="100"/>
</g></g><g transform="translate(91,21) scale(0.07,0.07)"><g transform="" style="fill: rgb(51, 63, 112);">
<g>
	<path d="M100,34.375c0-9.505-3.354-17.611-10.059-24.316C83.236,3.354,75.13,0,65.625,0H0v100h100V34.375z"/>
</g>
</g></g><g transform="translate(112,21) scale(0.07,0.07)"><g transform="" style="fill: rgb(51, 63, 112);">
<g>
	<path d="M100,34.375V0H34.375C24.87,0,16.764,3.353,10.059,10.059S0,24.87,0,34.375V100h100V34.375z"/>
</g>
</g></g><g transform="translate(119,21) scale(0.07,0.07)"><g transform="" style="fill: rgb(51, 63, 112);">
<rect width="100" height="100"/>
</g></g><g transform="translate(126,21) scale(0.07,0.07)"><g transform="" style="fill: rgb(51, 63, 112);">
<g>
	<path d="M65.625,0H0v100h65.625c9.505,0,17.611-3.354,24.316-10.059C96.646,83.236,100,75.13,100,65.625v-31.25
		c0-9.505-3.354-17.611-10.059-24.316C83.236,3.354,75.13,0,65.625,0z"/>
</g>
</g></g><g transform="translate(56,28) scale(0.07,0.07)"><g transform="" style="fill: rgb(51, 63, 112);">
<g>
	<path d="M100,65.625c0,9.507-3.355,17.611-10.059,24.316C83.236,96.645,75.132,100,65.625,100h-31.25
		c-9.504,0-17.61-3.355-24.315-10.059C3.354,83.236,0,75.132,0,65.625v-31.25c0-9.504,3.353-17.61,10.059-24.315
		C16.766,3.354,24.871,0,34.375,0h31.25c9.508,0,17.613,3.353,24.316,10.059C96.646,16.766,100,24.871,100,34.375V65.625z"/>
</g>
</g></g><g transform="translate(91,28) scale(0.07,0.07)"><g transform="" style="fill: rgb(51, 63, 112);">
<g>
	<path d="M99.805,32.031H100V0H0v32.031h0.195C0.065,33.073,0,33.854,0,34.375v31.25c0,9.505,3.353,17.611,10.059,24.316
		C16.765,96.646,24.87,100,34.375,100h31.25c9.505,0,17.611-3.354,24.316-10.059C96.646,83.236,100,75.13,100,65.625v-31.25
		C100,33.854,99.937,33.073,99.805,32.031z"/>
</g>
</g></g><g transform="translate(112,28) scale(0.07,0.07)"><g transform="" style="fill: rgb(51, 63, 112);">
<rect width="100" height="100"/>
</g></g><g transform="translate(119,28) scale(0.07,0.07)"><g transform="" style="fill: rgb(51, 63, 112);">
<g>
	<path d="M100,0H0v100h65.625c9.505,0,17.611-3.354,24.316-10.059C96.646,83.236,100,75.13,100,65.625V0z"/>
</g>
</g></g><g transform="translate(133,28) scale(0.07,0.07)"><g transform="" style="fill: rgb(51, 63, 112);">
<g>
	<path d="M100,34.375c0-9.505-3.354-17.611-10.059-24.316C83.236,3.354,75.13,0,65.625,0h-31.25C24.87,0,16.764,3.353,10.059,10.059
		S0,24.87,0,34.375v31.25c0,0.521,0.065,1.303,0.195,2.344H0V100h100V67.969h-0.195c0.132-1.041,0.195-1.822,0.195-2.344V34.375z"/>
</g>
</g></g><g transform="translate(70,35) scale(0.07,0.07)"><g transform="" style="fill: rgb(51, 63, 112);">
<g>
	<path d="M100,34.375V0H34.375C24.87,0,16.764,3.353,10.059,10.059S0,24.87,0,34.375V100h100V34.375z"/>
</g>
</g></g><g transform="translate(77,35) scale(0.07,0.07)"><g transform="" style="fill: rgb(51, 63, 112);">
<g>
	<path d="M65.625,0H0v100h65.625c9.505,0,17.611-3.354,24.316-10.059C96.646,83.236,100,75.13,100,65.625v-31.25
		c0-9.505-3.354-17.611-10.059-24.316C83.236,3.354,75.13,0,65.625,0z"/>
</g>
</g></g><g transform="translate(98,35) scale(0.07,0.07)"><g transform="" style="fill: rgb(51, 63, 112);">
<g>
	<path d="M100,34.375V0H34.375C24.87,0,16.764,3.353,10.059,10.059S0,24.87,0,34.375V100h100V34.375z"/>
</g>
</g></g><g transform="translate(105,35) scale(0.07,0.07)"><g transform="" style="fill: rgb(51, 63, 112);">
<rect width="100" height="100"/>
</g></g><g transform="translate(112,35) scale(0.07,0.07)"><g transform="" style="fill: rgb(51, 63, 112);">
<rect width="100" height="100"/>
</g></g><g transform="translate(126,35) scale(0.07,0.07)"><g transform="" style="fill: rgb(51, 63, 112);">
<g>
	<path d="M100,34.375V0H34.375C24.87,0,16.764,3.353,10.059,10.059S0,24.87,0,34.375V100h100V34.375z"/>
</g>
</g></g><g transform="translate(133,35) scale(0.07,0.07)"><g transform="" style="fill: rgb(51, 63, 112);">
<rect width="100" height="100"/>
</g></g><g transform="translate(140,35) scale(0.07,0.07)"><g transform="" style="fill: rgb(51, 63, 112);">
<g>
	<path d="M100,34.375c0-9.505-3.354-17.611-10.059-24.316C83.236,3.354,75.13,0,65.625,0H0v100h100V34.375z"/>
</g>
</g></g><g transform="translate(56,42) scale(0.07,0.07)"><g transform="" style="fill: rgb(51, 63, 112);">
<g>
	<path d="M100,65.625c0,9.507-3.355,17.611-10.059,24.316C83.236,96.645,75.132,100,65.625,100h-31.25
		c-9.504,0-17.61-3.355-24.315-10.059C3.354,83.236,0,75.132,0,65.625v-31.25c0-9.504,3.353-17.61,10.059-24.315
		C16.766,3.354,24.871,0,34.375,0h31.25c9.508,0,17.613,3.353,24.316,10.059C96.646,16.766,100,24.871,100,34.375V65.625z"/>
</g>
</g></g><g transform="translate(70,42) scale(0.07,0.07)"><g transform="" style="fill: rgb(51, 63, 112);">
<g>
	<path d="M99.805,32.031H100V0H0v32.031h0.195C0.065,33.073,0,33.854,0,34.375v31.25c0,9.505,3.353,17.611,10.059,24.316
		C16.765,96.646,24.87,100,34.375,100h31.25c9.505,0,17.611-3.354,24.316-10.059C96.646,83.236,100,75.13,100,65.625v-31.25
		C100,33.854,99.937,33.073,99.805,32.031z"/>
</g>
</g></g><g transform="translate(84,42) scale(0.07,0.07)"><g transform="" style="fill: rgb(51, 63, 112);">
<g>
	<path d="M100,34.375c0-9.505-3.354-17.611-10.059-24.316C83.236,3.354,75.13,0,65.625,0h-31.25C24.87,0,16.764,3.353,10.059,10.059
		S0,24.87,0,34.375v31.25c0,0.521,0.065,1.303,0.195,2.344H0V100h100V67.969h-0.195c0.132-1.041,0.195-1.822,0.195-2.344V34.375z"/>
</g>
</g></g><g transform="translate(98,42) scale(0.07,0.07)"><g transform="" style="fill: rgb(51, 63, 112);">
<g>
	<path d="M99.805,32.031H100V0H0v32.031h0.195C0.065,33.073,0,33.854,0,34.375v31.25c0,9.505,3.353,17.611,10.059,24.316
		C16.765,96.646,24.87,100,34.375,100h31.25c9.505,0,17.611-3.354,24.316-10.059C96.646,83.236,100,75.13,100,65.625v-31.25
		C100,33.854,99.937,33.073,99.805,32.031z"/>
</g>
</g></g><g transform="translate(112,42) scale(0.07,0.07)"><g transform="" style="fill: rgb(51, 63, 112);">
<g>
	<path d="M99.805,32.031H100V0H0v32.031h0.195C0.065,33.073,0,33.854,0,34.375v31.25c0,9.505,3.353,17.611,10.059,24.316
		C16.765,96.646,24.87,100,34.375,100h31.25c9.505,0,17.611-3.354,24.316-10.059C96.646,83.236,100,75.13,100,65.625v-31.25
		C100,33.854,99.937,33.073,99.805,32.031z"/>
</g>
</g></g><g transform="translate(126,42) scale(0.07,0.07)"><g transform="" style="fill: rgb(51, 63, 112);">
<rect width="100" height="100"/>
</g></g><g transform="translate(140,42) scale(0.07,0.07)"><g transform="" style="fill: rgb(51, 63, 112);">
<rect width="100" height="100"/>
</g></g><g transform="translate(84,49) scale(0.07,0.07)"><g transform="" style="fill: rgb(51, 63, 112);">
<g>
	<path d="M99.805,32.031H100V0H0v32.031h0.195C0.065,33.073,0,33.854,0,34.375v31.25c0,9.505,3.353,17.611,10.059,24.316
		C16.765,96.646,24.87,100,34.375,100h31.25c9.505,0,17.611-3.354,24.316-10.059C96.646,83.236,100,75.13,100,65.625v-31.25
		C100,33.854,99.937,33.073,99.805,32.031z"/>
</g>
</g></g><g transform="translate(105,49) scale(0.07,0.07)"><g transform="" style="fill: rgb(51, 63, 112);">
<g>
	<path d="M100,65.625c0,9.507-3.355,17.611-10.059,24.316C83.236,96.645,75.132,100,65.625,100h-31.25
		c-9.504,0-17.61-3.355-24.315-10.059C3.354,83.236,0,75.132,0,65.625v-31.25c0-9.504,3.353-17.61,10.059-24.315
		C16.766,3.354,24.871,0,34.375,0h31.25c9.508,0,17.613,3.353,24.316,10.059C96.646,16.766,100,24.871,100,34.375V65.625z"/>
</g>
</g></g><g transform="translate(119,49) scale(0.07,0.07)"><g transform="" style="fill: rgb(51, 63, 112);">
<g>
	<path d="M100,34.375V0H34.375C24.87,0,16.764,3.353,10.059,10.059S0,24.87,0,34.375V100h100V34.375z"/>
</g>
</g></g><g transform="translate(126,49) scale(0.07,0.07)"><g transform="" style="fill: rgb(51, 63, 112);">
<g>
	<path d="M100,0H0v100h65.625c9.505,0,17.611-3.354,24.316-10.059C96.646,83.236,100,75.13,100,65.625V0z"/>
</g>
</g></g><g transform="translate(140,49) scale(0.07,0.07)"><g transform="" style="fill: rgb(51, 63, 112);">
<g>
	<path d="M99.805,32.031H100V0H0v32.031h0.195C0.065,33.073,0,33.854,0,34.375v31.25c0,9.505,3.353,17.611,10.059,24.316
		C16.765,96.646,24.87,100,34.375,100h31.25c9.505,0,17.611-3.354,24.316-10.059C96.646,83.236,100,75.13,100,65.625v-31.25
		C100,33.854,99.937,33.073,99.805,32.031z"/>
</g>
</g></g><g transform="translate(0,56) scale(0.07,0.07)"><g transform="" style="fill: rgb(51, 63, 112);">
<g>
	<path d="M100,34.375c0-9.505-3.354-17.611-10.059-24.316C83.236,3.354,75.13,0,65.625,0h-31.25C24.87,0,16.764,3.353,10.059,10.059
		S0,24.87,0,34.375v31.25c0,0.521,0.065,1.303,0.195,2.344H0V100h100V67.969h-0.195c0.132-1.041,0.195-1.822,0.195-2.344V34.375z"/>
</g>
</g></g><g transform="translate(14,56) scale(0.07,0.07)"><g transform="" style="fill: rgb(51, 63, 112);">
<g>
	<path d="M100,34.375c0-9.505-3.354-17.611-10.059-24.316C83.236,3.354,75.13,0,65.625,0h-31.25C24.87,0,16.764,3.353,10.059,10.059
		S0,24.87,0,34.375v31.25c0,0.521,0.065,1.303,0.195,2.344H0V100h100V67.969h-0.195c0.132-1.041,0.195-1.822,0.195-2.344V34.375z"/>
</g>
</g></g><g transform="translate(28,56) scale(0.07,0.07)"><g transform="" style="fill: rgb(51, 63, 112);">
<g>
	<path d="M100,65.625c0,9.507-3.355,17.611-10.059,24.316C83.236,96.645,75.132,100,65.625,100h-31.25
		c-9.504,0-17.61-3.355-24.315-10.059C3.354,83.236,0,75.132,0,65.625v-31.25c0-9.504,3.353-17.61,10.059-24.315
		C16.766,3.354,24.871,0,34.375,0h31.25c9.508,0,17.613,3.353,24.316,10.059C96.646,16.766,100,24.871,100,34.375V65.625z"/>
</g>
</g></g><g transform="translate(42,56) scale(0.07,0.07)"><g transform="" style="fill: rgb(51, 63, 112);">
<g>
	<path d="M100,65.625c0,9.507-3.355,17.611-10.059,24.316C83.236,96.645,75.132,100,65.625,100h-31.25
		c-9.504,0-17.61-3.355-24.315-10.059C3.354,83.236,0,75.132,0,65.625v-31.25c0-9.504,3.353-17.61,10.059-24.315
		C16.766,3.354,24.871,0,34.375,0h31.25c9.508,0,17.613,3.353,24.316,10.059C96.646,16.766,100,24.871,100,34.375V65.625z"/>
</g>
</g></g><g transform="translate(63,56) scale(0.07,0.07)"><g transform="" style="fill: rgb(51, 63, 112);">
<g>
	<path d="M100,34.375V0H34.375C24.87,0,16.764,3.353,10.059,10.059S0,24.87,0,34.375V100h100V34.375z"/>
</g>
</g></g><g transform="translate(70,56) scale(0.07,0.07)"><g transform="" style="fill: rgb(51, 63, 112);">
<rect width="100" height="100"/>
</g></g><g transform="translate(77,56) scale(0.07,0.07)"><g transform="" style="fill: rgb(51, 63, 112);">
<g>
	<path d="M100,34.375c0-9.505-3.354-17.611-10.059-24.316C83.236,3.354,75.13,0,65.625,0H0v100h100V34.375z"/>
</g>
</g></g><g transform="translate(112,56) scale(0.07,0.07)"><g transform="" style="fill: rgb(51, 63, 112);">
<g>
	<path d="M100,34.375V0H34.375C24.87,0,16.764,3.353,10.059,10.059S0,24.87,0,34.375V100h100V34.375z"/>
</g>
</g></g><g transform="translate(119,56) scale(0.07,0.07)"><g transform="" style="fill: rgb(51, 63, 112);">
<rect width="100" height="100"/>
</g></g><g transform="translate(168,56) scale(0.07,0.07)"><g transform="" style="fill: rgb(51, 63, 112);">
<g>
	<path d="M100,65.625c0,9.507-3.355,17.611-10.059,24.316C83.236,96.645,75.132,100,65.625,100h-31.25
		c-9.504,0-17.61-3.355-24.315-10.059C3.354,83.236,0,75.132,0,65.625v-31.25c0-9.504,3.353-17.61,10.059-24.315
		C16.766,3.354,24.871,0,34.375,0h31.25c9.508,0,17.613,3.353,24.316,10.059C96.646,16.766,100,24.871,100,34.375V65.625z"/>
</g>
</g></g><g transform="translate(189,56) scale(0.07,0.07)"><g transform="" style="fill: rgb(51, 63, 112);">
<g>
	<path d="M100,65.625c0,9.507-3.355,17.611-10.059,24.316C83.236,96.645,75.132,100,65.625,100h-31.25
		c-9.504,0-17.61-3.355-24.315-10.059C3.354,83.236,0,75.132,0,65.625v-31.25c0-9.504,3.353-17.61,10.059-24.315
		C16.766,3.354,24.871,0,34.375,0h31.25c9.508,0,17.613,3.353,24.316,10.059C96.646,16.766,100,24.871,100,34.375V65.625z"/>
</g>
</g></g><g transform="translate(0,63) scale(0.07,0.07)"><g transform="" style="fill: rgb(51, 63, 112);">
<rect width="100" height="100"/>
</g></g><g transform="translate(7,63) scale(0.07,0.07)"><g transform="" style="fill: rgb(51, 63, 112);">
<rect width="100" height="100"/>
</g></g><g transform="translate(14,63) scale(0.07,0.07)"><g transform="" style="fill: rgb(51, 63, 112);">
<rect width="100" height="100"/>
</g></g><g transform="translate(21,63) scale(0.07,0.07)"><g transform="" style="fill: rgb(51, 63, 112);">
<g>
	<path d="M100,34.375c0-9.505-3.354-17.611-10.059-24.316C83.236,3.354,75.13,0,65.625,0H0v100h100V34.375z"/>
</g>
</g></g><g transform="translate(56,63) scale(0.07,0.07)"><g transform="" style="fill: rgb(51, 63, 112);">
<g>
	<path d="M100,34.375V0H34.375C24.87,0,16.764,3.353,10.059,10.059S0,24.87,0,34.375v31.25c0,9.505,3.353,17.611,10.059,24.316
		C16.765,96.646,24.87,100,34.375,100H100V34.375z"/>
</g>
</g></g><g transform="translate(63,63) scale(0.07,0.07)"><g transform="" style="fill: rgb(51, 63, 112);">
<rect width="100" height="100"/>
</g></g><g transform="translate(77,63) scale(0.07,0.07)"><g transform="" style="fill: rgb(51, 63, 112);">
<g>
	<path d="M99.805,32.031H100V0H0v32.031h0.195C0.065,33.073,0,33.854,0,34.375v31.25c0,9.505,3.353,17.611,10.059,24.316
		C16.765,96.646,24.87,100,34.375,100h31.25c9.505,0,17.611-3.354,24.316-10.059C96.646,83.236,100,75.13,100,65.625v-31.25
		C100,33.854,99.937,33.073,99.805,32.031z"/>
</g>
</g></g><g transform="translate(91,63) scale(0.07,0.07)"><g transform="" style="fill: rgb(51, 63, 112);">
<g>
	<path d="M100,65.625c0,9.507-3.355,17.611-10.059,24.316C83.236,96.645,75.132,100,65.625,100h-31.25
		c-9.504,0-17.61-3.355-24.315-10.059C3.354,83.236,0,75.132,0,65.625v-31.25c0-9.504,3.353-17.61,10.059-24.315
		C16.766,3.354,24.871,0,34.375,0h31.25c9.508,0,17.613,3.353,24.316,10.059C96.646,16.766,100,24.871,100,34.375V65.625z"/>
</g>
</g></g><g transform="translate(105,63) scale(0.07,0.07)"><g transform="" style="fill: rgb(51, 63, 112);">
<g>
	<path d="M100,34.375V0H34.375C24.87,0,16.764,3.353,10.059,10.059S0,24.87,0,34.375V100h100V34.375z"/>
</g>
</g></g><g transform="translate(112,63) scale(0.07,0.07)"><g transform="" style="fill: rgb(51, 63, 112);">
<rect width="100" height="100"/>
</g></g><g transform="translate(119,63) scale(0.07,0.07)"><g transform="" style="fill: rgb(51, 63, 112);">
<rect width="100" height="100"/>
</g></g><g transform="translate(140,63) scale(0.07,0.07)"><g transform="" style="fill: rgb(51, 63, 112);">
<g>
	<path d="M100,34.375V0H34.375C24.87,0,16.764,3.353,10.059,10.059S0,24.87,0,34.375v31.25c0,9.505,3.353,17.611,10.059,24.316
		C16.765,96.646,24.87,100,34.375,100H100V34.375z"/>
</g>
</g></g><g transform="translate(147,63) scale(0.07,0.07)"><g transform="" style="fill: rgb(51, 63, 112);">
<rect width="100" height="100"/>
</g></g><g transform="translate(154,63) scale(0.07,0.07)"><g transform="" style="fill: rgb(51, 63, 112);">
<rect width="100" height="100"/>
</g></g><g transform="translate(161,63) scale(0.07,0.07)"><g transform="" style="fill: rgb(51, 63, 112);">
<g>
	<path d="M100,34.375c0-9.505-3.354-17.611-10.059-24.316C83.236,3.354,75.13,0,65.625,0H0v100h100V34.375z"/>
</g>
</g></g><g transform="translate(175,63) scale(0.07,0.07)"><g transform="" style="fill: rgb(51, 63, 112);">
<g>
	<path d="M100,65.625c0,9.507-3.355,17.611-10.059,24.316C83.236,96.645,75.132,100,65.625,100h-31.25
		c-9.504,0-17.61-3.355-24.315-10.059C3.354,83.236,0,75.132,0,65.625v-31.25c0-9.504,3.353-17.61,10.059-24.315
		C16.766,3.354,24.871,0,34.375,0h31.25c9.508,0,17.613,3.353,24.316,10.059C96.646,16.766,100,24.871,100,34.375V65.625z"/>
</g>
</g></g><g transform="translate(196,63) scale(0.07,0.07)"><g transform="" style="fill: rgb(51, 63, 112);">
<g>
	<path d="M100,34.375c0-9.505-3.354-17.611-10.059-24.316C83.236,3.354,75.13,0,65.625,0h-31.25C24.87,0,16.764,3.353,10.059,10.059
		S0,24.87,0,34.375v31.25c0,0.521,0.065,1.303,0.195,2.344H0V100h100V67.969h-0.195c0.132-1.041,0.195-1.822,0.195-2.344V34.375z"/>
</g>
</g></g><g transform="translate(0,70) scale(0.07,0.07)"><g transform="" style="fill: rgb(51, 63, 112);">
<g>
	<path d="M99.805,32.031H100V0H0v32.031h0.195C0.065,33.073,0,33.854,0,34.375v31.25c0,9.505,3.353,17.611,10.059,24.316
		C16.765,96.646,24.87,100,34.375,100h31.25c9.505,0,17.611-3.354,24.316-10.059C96.646,83.236,100,75.13,100,65.625v-31.25
		C100,33.854,99.937,33.073,99.805,32.031z"/>
</g>
</g></g><g transform="translate(21,70) scale(0.07,0.07)"><g transform="" style="fill: rgb(51, 63, 112);">
<rect width="100" height="100"/>
</g></g><g transform="translate(42,70) scale(0.07,0.07)"><g transform="" style="fill: rgb(51, 63, 112);">
<g>
	<path d="M100,65.625c0,9.507-3.355,17.611-10.059,24.316C83.236,96.645,75.132,100,65.625,100h-31.25
		c-9.504,0-17.61-3.355-24.315-10.059C3.354,83.236,0,75.132,0,65.625v-31.25c0-9.504,3.353-17.61,10.059-24.315
		C16.766,3.354,24.871,0,34.375,0h31.25c9.508,0,17.613,3.353,24.316,10.059C96.646,16.766,100,24.871,100,34.375V65.625z"/>
</g>
</g></g><g transform="translate(63,70) scale(0.07,0.07)"><g transform="" style="fill: rgb(51, 63, 112);">
<rect width="100" height="100"/>
</g></g><g transform="translate(84,70) scale(0.07,0.07)"><g transform="" style="fill: rgb(51, 63, 112);">
<g>
	<path d="M100,65.625c0,9.507-3.355,17.611-10.059,24.316C83.236,96.645,75.132,100,65.625,100h-31.25
		c-9.504,0-17.61-3.355-24.315-10.059C3.354,83.236,0,75.132,0,65.625v-31.25c0-9.504,3.353-17.61,10.059-24.315
		C16.766,3.354,24.871,0,34.375,0h31.25c9.508,0,17.613,3.353,24.316,10.059C96.646,16.766,100,24.871,100,34.375V65.625z"/>
</g>
</g></g><g transform="translate(98,70) scale(0.07,0.07)"><g transform="" style="fill: rgb(51, 63, 112);">
<g>
	<path d="M100,34.375V0H34.375C24.87,0,16.764,3.353,10.059,10.059S0,24.87,0,34.375V100h100V34.375z"/>
</g>
</g></g><g transform="translate(105,70) scale(0.07,0.07)"><g transform="" style="fill: rgb(51, 63, 112);">
<rect width="100" height="100"/>
</g></g><g transform="translate(112,70) scale(0.07,0.07)"><g transform="" style="fill: rgb(51, 63, 112);">
<rect width="100" height="100"/>
</g></g><g transform="translate(119,70) scale(0.07,0.07)"><g transform="" style="fill: rgb(51, 63, 112);">
<rect width="100" height="100"/>
</g></g><g transform="translate(126,70) scale(0.07,0.07)"><g transform="" style="fill: rgb(51, 63, 112);">
<g>
	<path d="M65.625,0H0v100h65.625c9.505,0,17.611-3.354,24.316-10.059C96.646,83.236,100,75.13,100,65.625v-31.25
		c0-9.505-3.354-17.611-10.059-24.316C83.236,3.354,75.13,0,65.625,0z"/>
</g>
</g></g><g transform="translate(147,70) scale(0.07,0.07)"><g transform="" style="fill: rgb(51, 63, 112);">
<g>
	<path d="M99.805,32.031H100V0H0v32.031h0.195C0.065,33.073,0,33.854,0,34.375v31.25c0,9.505,3.353,17.611,10.059,24.316
		C16.765,96.646,24.87,100,34.375,100h31.25c9.505,0,17.611-3.354,24.316-10.059C96.646,83.236,100,75.13,100,65.625v-31.25
		C100,33.854,99.937,33.073,99.805,32.031z"/>
</g>
</g></g><g transform="translate(161,70) scale(0.07,0.07)"><g transform="" style="fill: rgb(51, 63, 112);">
<g>
	<path d="M100,0H0v65.625c0,9.505,3.353,17.611,10.059,24.316C16.765,96.646,24.87,100,34.375,100H100V0z"/>
</g>
</g></g><g transform="translate(168,70) scale(0.07,0.07)"><g transform="" style="fill: rgb(51, 63, 112);">
<g>
	<path d="M65.625,0H0v100h65.625c9.505,0,17.611-3.354,24.316-10.059C96.646,83.236,100,75.13,100,65.625v-31.25
		c0-9.505-3.354-17.611-10.059-24.316C83.236,3.354,75.13,0,65.625,0z"/>
</g>
</g></g><g transform="translate(182,70) scale(0.07,0.07)"><g transform="" style="fill: rgb(51, 63, 112);">
<g>
	<path d="M100,34.375V0H34.375C24.87,0,16.764,3.353,10.059,10.059S0,24.87,0,34.375v31.25c0,9.505,3.353,17.611,10.059,24.316
		C16.765,96.646,24.87,100,34.375,100H100V34.375z"/>
</g>
</g></g><g transform="translate(189,70) scale(0.07,0.07)"><g transform="" style="fill: rgb(51, 63, 112);">
<rect width="100" height="100"/>
</g></g><g transform="translate(196,70) scale(0.07,0.07)"><g transform="" style="fill: rgb(51, 63, 112);">
<g>
	<path d="M100,0H0v100h65.625c9.505,0,17.611-3.354,24.316-10.059C96.646,83.236,100,75.13,100,65.625V0z"/>
</g>
</g></g><g transform="translate(21,77) scale(0.07,0.07)"><g transform="" style="fill: rgb(51, 63, 112);">
<rect width="100" height="100"/>
</g></g><g transform="translate(28,77) scale(0.07,0.07)"><g transform="" style="fill: rgb(51, 63, 112);">
<g>
	<path d="M100,34.375c0-9.505-3.354-17.611-10.059-24.316C83.236,3.354,75.13,0,65.625,0H0v100h100V34.375z"/>
</g>
</g></g><g transform="translate(49,77) scale(0.07,0.07)"><g transform="" style="fill: rgb(51, 63, 112);">
<g>
	<path d="M100,34.375V0H34.375C24.87,0,16.764,3.353,10.059,10.059S0,24.87,0,34.375V100h100V34.375z"/>
</g>
</g></g><g transform="translate(56,77) scale(0.07,0.07)"><g transform="" style="fill: rgb(51, 63, 112);">
<rect width="100" height="100"/>
</g></g><g transform="translate(63,77) scale(0.07,0.07)"><g transform="" style="fill: rgb(51, 63, 112);">
<rect width="100" height="100"/>
</g></g><g transform="translate(91,77) scale(0.07,0.07)"><g transform="" style="fill: rgb(51, 63, 112);">
<g>
	<path d="M100,34.375V0H34.375C24.87,0,16.764,3.353,10.059,10.059S0,24.87,0,34.375v31.25c0,9.505,3.353,17.611,10.059,24.316
		C16.765,96.646,24.87,100,34.375,100H100V34.375z"/>
</g>
</g></g><g transform="translate(98,77) scale(0.07,0.07)"><g transform="" style="fill: rgb(51, 63, 112);">
<rect width="100" height="100"/>
</g></g><g transform="translate(112,77) scale(0.07,0.07)"><g transform="" style="fill: rgb(51, 63, 112);">
<g>
	<path d="M100,0H0v65.625c0,9.505,3.353,17.611,10.059,24.316C16.765,96.646,24.87,100,34.375,100H100V0z"/>
</g>
</g></g><g transform="translate(119,77) scale(0.07,0.07)"><g transform="" style="fill: rgb(51, 63, 112);">
<rect width="100" height="100"/>
</g></g><g transform="translate(133,77) scale(0.07,0.07)"><g transform="" style="fill: rgb(51, 63, 112);">
<g>
	<path d="M100,65.625c0,9.507-3.355,17.611-10.059,24.316C83.236,96.645,75.132,100,65.625,100h-31.25
		c-9.504,0-17.61-3.355-24.315-10.059C3.354,83.236,0,75.132,0,65.625v-31.25c0-9.504,3.353-17.61,10.059-24.315
		C16.766,3.354,24.871,0,34.375,0h31.25c9.508,0,17.613,3.353,24.316,10.059C96.646,16.766,100,24.871,100,34.375V65.625z"/>
</g>
</g></g><g transform="translate(154,77) scale(0.07,0.07)"><g transform="" style="fill: rgb(51, 63, 112);">
<g>
	<path d="M100,34.375c0-9.505-3.354-17.611-10.059-24.316C83.236,3.354,75.13,0,65.625,0h-31.25C24.87,0,16.764,3.353,10.059,10.059
		S0,24.87,0,34.375v31.25c0,0.521,0.065,1.303,0.195,2.344H0V100h100V67.969h-0.195c0.132-1.041,0.195-1.822,0.195-2.344V34.375z"/>
</g>
</g></g><g transform="translate(189,77) scale(0.07,0.07)"><g transform="" style="fill: rgb(51, 63, 112);">
<rect width="100" height="100"/>
</g></g><g transform="translate(0,84) scale(0.07,0.07)"><g transform="" style="fill: rgb(51, 63, 112);">
<g>
	<path d="M100,34.375V0H34.375C24.87,0,16.764,3.353,10.059,10.059S0,24.87,0,34.375v31.25c0,9.505,3.353,17.611,10.059,24.316
		C16.765,96.646,24.87,100,34.375,100H100V34.375z"/>
</g>
</g></g><g transform="translate(7,84) scale(0.07,0.07)"><g transform="" style="fill: rgb(51, 63, 112);">
<g>
	<path d="M65.625,0H0v100h65.625c9.505,0,17.611-3.354,24.316-10.059C96.646,83.236,100,75.13,100,65.625v-31.25
		c0-9.505-3.354-17.611-10.059-24.316C83.236,3.354,75.13,0,65.625,0z"/>
</g>
</g></g><g transform="translate(21,84) scale(0.07,0.07)"><g transform="" style="fill: rgb(51, 63, 112);">
<g>
	<path d="M100,0H0v65.625c0,9.505,3.353,17.611,10.059,24.316C16.765,96.646,24.87,100,34.375,100H100V0z"/>
</g>
</g></g><g transform="translate(28,84) scale(0.07,0.07)"><g transform="" style="fill: rgb(51, 63, 112);">
<rect width="100" height="100"/>
</g></g><g transform="translate(35,84) scale(0.07,0.07)"><g transform="" style="fill: rgb(51, 63, 112);">
<rect width="100" height="100"/>
</g></g><g transform="translate(42,84) scale(0.07,0.07)"><g transform="" style="fill: rgb(51, 63, 112);">
<rect width="100" height="100"/>
</g></g><g transform="translate(49,84) scale(0.07,0.07)"><g transform="" style="fill: rgb(51, 63, 112);">
<rect width="100" height="100"/>
</g></g><g transform="translate(56,84) scale(0.07,0.07)"><g transform="" style="fill: rgb(51, 63, 112);">
<rect width="100" height="100"/>
</g></g><g transform="translate(63,84) scale(0.07,0.07)"><g transform="" style="fill: rgb(51, 63, 112);">
<rect width="100" height="100"/>
</g></g><g transform="translate(77,84) scale(0.07,0.07)"><g transform="" style="fill: rgb(51, 63, 112);">
<g>
	<path d="M100,34.375V0H34.375C24.87,0,16.764,3.353,10.059,10.059S0,24.87,0,34.375V100h100V34.375z"/>
</g>
</g></g><g transform="translate(84,84) scale(0.07,0.07)"><g transform="" style="fill: rgb(51, 63, 112);">
<g>
	<path d="M65.625,0H0v100h65.625c9.505,0,17.611-3.354,24.316-10.059C96.646,83.236,100,75.13,100,65.625v-31.25
		c0-9.505-3.354-17.611-10.059-24.316C83.236,3.354,75.13,0,65.625,0z"/>
</g>
</g></g><g transform="translate(98,84) scale(0.07,0.07)"><g transform="" style="fill: rgb(51, 63, 112);">
<rect width="100" height="100"/>
</g></g><g transform="translate(105,84) scale(0.07,0.07)"><g transform="" style="fill: rgb(51, 63, 112);">
<g>
	<path d="M100,34.375c0-9.505-3.354-17.611-10.059-24.316C83.236,3.354,75.13,0,65.625,0H0v100h100V34.375z"/>
</g>
</g></g><g transform="translate(119,84) scale(0.07,0.07)"><g transform="" style="fill: rgb(51, 63, 112);">
<g>
	<path d="M99.805,32.031H100V0H0v32.031h0.195C0.065,33.073,0,33.854,0,34.375v31.25c0,9.505,3.353,17.611,10.059,24.316
		C16.765,96.646,24.87,100,34.375,100h31.25c9.505,0,17.611-3.354,24.316-10.059C96.646,83.236,100,75.13,100,65.625v-31.25
		C100,33.854,99.937,33.073,99.805,32.031z"/>
</g>
</g></g><g transform="translate(147,84) scale(0.07,0.07)"><g transform="" style="fill: rgb(51, 63, 112);">
<g>
	<path d="M100,34.375V0H34.375C24.87,0,16.764,3.353,10.059,10.059S0,24.87,0,34.375V100h100V34.375z"/>
</g>
</g></g><g transform="translate(154,84) scale(0.07,0.07)"><g transform="" style="fill: rgb(51, 63, 112);">
<rect width="100" height="100"/>
</g></g><g transform="translate(175,84) scale(0.07,0.07)"><g transform="" style="fill: rgb(51, 63, 112);">
<g>
	<path d="M100,34.375c0-9.505-3.354-17.611-10.059-24.316C83.236,3.354,75.13,0,65.625,0h-31.25C24.87,0,16.764,3.353,10.059,10.059
		S0,24.87,0,34.375v31.25c0,0.521,0.065,1.303,0.195,2.344H0V100h100V67.969h-0.195c0.132-1.041,0.195-1.822,0.195-2.344V34.375z"/>
</g>
</g></g><g transform="translate(189,84) scale(0.07,0.07)"><g transform="" style="fill: rgb(51, 63, 112);">
<g>
	<path d="M100,0H0v65.625c0,9.505,3.353,17.611,10.059,24.316C16.765,96.646,24.87,100,34.375,100H100V0z"/>
</g>
</g></g><g transform="translate(196,84) scale(0.07,0.07)"><g transform="" style="fill: rgb(51, 63, 112);">
<g>
	<path d="M100,34.375c0-9.505-3.354-17.611-10.059-24.316C83.236,3.354,75.13,0,65.625,0H0v100h100V34.375z"/>
</g>
</g></g><g transform="translate(14,91) scale(0.07,0.07)"><g transform="" style="fill: rgb(51, 63, 112);">
<g>
	<path d="M100,34.375c0-9.505-3.354-17.611-10.059-24.316C83.236,3.354,75.13,0,65.625,0h-31.25C24.87,0,16.764,3.353,10.059,10.059
		S0,24.87,0,34.375v31.25c0,0.521,0.065,1.303,0.195,2.344H0V100h100V67.969h-0.195c0.132-1.041,0.195-1.822,0.195-2.344V34.375z"/>
</g>
</g></g><g transform="translate(49,91) scale(0.07,0.07)"><g transform="" style="fill: rgb(51, 63, 112);">
<g>
	<path d="M99.805,32.031H100V0H0v32.031h0.195C0.065,33.073,0,33.854,0,34.375v31.25c0,9.505,3.353,17.611,10.059,24.316
		C16.765,96.646,24.87,100,34.375,100h31.25c9.505,0,17.611-3.354,24.316-10.059C96.646,83.236,100,75.13,100,65.625v-31.25
		C100,33.854,99.937,33.073,99.805,32.031z"/>
</g>
</g></g><g transform="translate(63,91) scale(0.07,0.07)"><g transform="" style="fill: rgb(51, 63, 112);">
<rect width="100" height="100"/>
</g></g><g transform="translate(77,91) scale(0.07,0.07)"><g transform="" style="fill: rgb(51, 63, 112);">
<g>
	<path d="M99.805,32.031H100V0H0v32.031h0.195C0.065,33.073,0,33.854,0,34.375v31.25c0,9.505,3.353,17.611,10.059,24.316
		C16.765,96.646,24.87,100,34.375,100h31.25c9.505,0,17.611-3.354,24.316-10.059C96.646,83.236,100,75.13,100,65.625v-31.25
		C100,33.854,99.937,33.073,99.805,32.031z"/>
</g>
</g></g><g transform="translate(98,91) scale(0.07,0.07)"><g transform="" style="fill: rgb(51, 63, 112);">
<g>
	<path d="M100,0H0v65.625c0,9.505,3.353,17.611,10.059,24.316C16.765,96.646,24.87,100,34.375,100H100V0z"/>
</g>
</g></g><g transform="translate(105,91) scale(0.07,0.07)"><g transform="" style="fill: rgb(51, 63, 112);">
<g>
	<path d="M100,0H0v100h65.625c9.505,0,17.611-3.354,24.316-10.059C96.646,83.236,100,75.13,100,65.625V0z"/>
</g>
</g></g><g transform="translate(147,91) scale(0.07,0.07)"><g transform="" style="fill: rgb(51, 63, 112);">
<rect width="100" height="100"/>
</g></g><g transform="translate(154,91) scale(0.07,0.07)"><g transform="" style="fill: rgb(51, 63, 112);">
<rect width="100" height="100"/>
</g></g><g transform="translate(175,91) scale(0.07,0.07)"><g transform="" style="fill: rgb(51, 63, 112);">
<rect width="100" height="100"/>
</g></g><g transform="translate(196,91) scale(0.07,0.07)"><g transform="" style="fill: rgb(51, 63, 112);">
<rect width="100" height="100"/>
</g></g><g transform="translate(7,98) scale(0.07,0.07)"><g transform="" style="fill: rgb(51, 63, 112);">
<g>
	<path d="M100,34.375V0H34.375C24.87,0,16.764,3.353,10.059,10.059S0,24.87,0,34.375v31.25c0,9.505,3.353,17.611,10.059,24.316
		C16.765,96.646,24.87,100,34.375,100H100V34.375z"/>
</g>
</g></g><g transform="translate(14,98) scale(0.07,0.07)"><g transform="" style="fill: rgb(51, 63, 112);">
<rect width="100" height="100"/>
</g></g><g transform="translate(21,98) scale(0.07,0.07)"><g transform="" style="fill: rgb(51, 63, 112);">
<rect width="100" height="100"/>
</g></g><g transform="translate(28,98) scale(0.07,0.07)"><g transform="" style="fill: rgb(51, 63, 112);">
<rect width="100" height="100"/>
</g></g><g transform="translate(35,98) scale(0.07,0.07)"><g transform="" style="fill: rgb(51, 63, 112);">
<rect width="100" height="100"/>
</g></g><g transform="translate(42,98) scale(0.07,0.07)"><g transform="" style="fill: rgb(51, 63, 112);">
<g>
	<path d="M65.625,0H0v100h65.625c9.505,0,17.611-3.354,24.316-10.059C96.646,83.236,100,75.13,100,65.625v-31.25
		c0-9.505-3.354-17.611-10.059-24.316C83.236,3.354,75.13,0,65.625,0z"/>
</g>
</g></g><g transform="translate(56,98) scale(0.07,0.07)"><g transform="" style="fill: rgb(51, 63, 112);">
<g>
	<path d="M100,34.375V0H34.375C24.87,0,16.764,3.353,10.059,10.059S0,24.87,0,34.375V100h100V34.375z"/>
</g>
</g></g><g transform="translate(63,98) scale(0.07,0.07)"><g transform="" style="fill: rgb(51, 63, 112);">
<g>
	<path d="M100,0H0v100h65.625c9.505,0,17.611-3.354,24.316-10.059C96.646,83.236,100,75.13,100,65.625V0z"/>
</g>
</g></g><g transform="translate(91,98) scale(0.07,0.07)"><g transform="" style="fill: rgb(51, 63, 112);">
<g>
	<path d="M100,65.625c0,9.507-3.355,17.611-10.059,24.316C83.236,96.645,75.132,100,65.625,100h-31.25
		c-9.504,0-17.61-3.355-24.315-10.059C3.354,83.236,0,75.132,0,65.625v-31.25c0-9.504,3.353-17.61,10.059-24.315
		C16.766,3.354,24.871,0,34.375,0h31.25c9.508,0,17.613,3.353,24.316,10.059C96.646,16.766,100,24.871,100,34.375V65.625z"/>
</g>
</g></g><g transform="translate(119,98) scale(0.07,0.07)"><g transform="" style="fill: rgb(51, 63, 112);">
<g>
	<path d="M100,34.375c0-9.505-3.354-17.611-10.059-24.316C83.236,3.354,75.13,0,65.625,0h-31.25C24.87,0,16.764,3.353,10.059,10.059
		S0,24.87,0,34.375v31.25c0,0.521,0.065,1.303,0.195,2.344H0V100h100V67.969h-0.195c0.132-1.041,0.195-1.822,0.195-2.344V34.375z"/>
</g>
</g></g><g transform="translate(140,98) scale(0.07,0.07)"><g transform="" style="fill: rgb(51, 63, 112);">
<g>
	<path d="M100,34.375V0H34.375C24.87,0,16.764,3.353,10.059,10.059S0,24.87,0,34.375v31.25c0,9.505,3.353,17.611,10.059,24.316
		C16.765,96.646,24.87,100,34.375,100H100V34.375z"/>
</g>
</g></g><g transform="translate(147,98) scale(0.07,0.07)"><g transform="" style="fill: rgb(51, 63, 112);">
<rect width="100" height="100"/>
</g></g><g transform="translate(154,98) scale(0.07,0.07)"><g transform="" style="fill: rgb(51, 63, 112);">
<rect width="100" height="100"/>
</g></g><g transform="translate(161,98) scale(0.07,0.07)"><g transform="" style="fill: rgb(51, 63, 112);">
<rect width="100" height="100"/>
</g></g><g transform="translate(168,98) scale(0.07,0.07)"><g transform="" style="fill: rgb(51, 63, 112);">
<rect width="100" height="100"/>
</g></g><g transform="translate(175,98) scale(0.07,0.07)"><g transform="" style="fill: rgb(51, 63, 112);">
<rect width="100" height="100"/>
</g></g><g transform="translate(189,98) scale(0.07,0.07)"><g transform="" style="fill: rgb(51, 63, 112);">
<g>
	<path d="M100,34.375V0H34.375C24.87,0,16.764,3.353,10.059,10.059S0,24.87,0,34.375V100h100V34.375z"/>
</g>
</g></g><g transform="translate(196,98) scale(0.07,0.07)"><g transform="" style="fill: rgb(51, 63, 112);">
<g>
	<path d="M100,0H0v100h65.625c9.505,0,17.611-3.354,24.316-10.059C96.646,83.236,100,75.13,100,65.625V0z"/>
</g>
</g></g><g transform="translate(14,105) scale(0.07,0.07)"><g transform="" style="fill: rgb(51, 63, 112);">
<rect width="100" height="100"/>
</g></g><g transform="translate(21,105) scale(0.07,0.07)"><g transform="" style="fill: rgb(51, 63, 112);">
<g>
	<path d="M100,0H0v100h65.625c9.505,0,17.611-3.354,24.316-10.059C96.646,83.236,100,75.13,100,65.625V0z"/>
</g>
</g></g><g transform="translate(35,105) scale(0.07,0.07)"><g transform="" style="fill: rgb(51, 63, 112);">
<g>
	<path d="M99.805,32.031H100V0H0v32.031h0.195C0.065,33.073,0,33.854,0,34.375v31.25c0,9.505,3.353,17.611,10.059,24.316
		C16.765,96.646,24.87,100,34.375,100h31.25c9.505,0,17.611-3.354,24.316-10.059C96.646,83.236,100,75.13,100,65.625v-31.25
		C100,33.854,99.937,33.073,99.805,32.031z"/>
</g>
</g></g><g transform="translate(49,105) scale(0.07,0.07)"><g transform="" style="fill: rgb(51, 63, 112);">
<g>
	<path d="M100,34.375V0H34.375C24.87,0,16.764,3.353,10.059,10.059S0,24.87,0,34.375V100h100V34.375z"/>
</g>
</g></g><g transform="translate(56,105) scale(0.07,0.07)"><g transform="" style="fill: rgb(51, 63, 112);">
<g>
	<path d="M100,0H0v100h65.625c9.505,0,17.611-3.354,24.316-10.059C96.646,83.236,100,75.13,100,65.625V0z"/>
</g>
</g></g><g transform="translate(84,105) scale(0.07,0.07)"><g transform="" style="fill: rgb(51, 63, 112);">
<g>
	<path d="M100,65.625c0,9.507-3.355,17.611-10.059,24.316C83.236,96.645,75.132,100,65.625,100h-31.25
		c-9.504,0-17.61-3.355-24.315-10.059C3.354,83.236,0,75.132,0,65.625v-31.25c0-9.504,3.353-17.61,10.059-24.315
		C16.766,3.354,24.871,0,34.375,0h31.25c9.508,0,17.613,3.353,24.316,10.059C96.646,16.766,100,24.871,100,34.375V65.625z"/>
</g>
</g></g><g transform="translate(105,105) scale(0.07,0.07)"><g transform="" style="fill: rgb(51, 63, 112);">
<g>
	<path d="M100,65.625c0,9.507-3.355,17.611-10.059,24.316C83.236,96.645,75.132,100,65.625,100h-31.25
		c-9.504,0-17.61-3.355-24.315-10.059C3.354,83.236,0,75.132,0,65.625v-31.25c0-9.504,3.353-17.61,10.059-24.315
		C16.766,3.354,24.871,0,34.375,0h31.25c9.508,0,17.613,3.353,24.316,10.059C96.646,16.766,100,24.871,100,34.375V65.625z"/>
</g>
</g></g><g transform="translate(119,105) scale(0.07,0.07)"><g transform="" style="fill: rgb(51, 63, 112);">
<rect width="100" height="100"/>
</g></g><g transform="translate(126,105) scale(0.07,0.07)"><g transform="" style="fill: rgb(51, 63, 112);">
<g>
	<path d="M65.625,0H0v100h65.625c9.505,0,17.611-3.354,24.316-10.059C96.646,83.236,100,75.13,100,65.625v-31.25
		c0-9.505-3.354-17.611-10.059-24.316C83.236,3.354,75.13,0,65.625,0z"/>
</g>
</g></g><g transform="translate(147,105) scale(0.07,0.07)"><g transform="" style="fill: rgb(51, 63, 112);">
<rect width="100" height="100"/>
</g></g><g transform="translate(168,105) scale(0.07,0.07)"><g transform="" style="fill: rgb(51, 63, 112);">
<g>
	<path d="M100,0H0v65.625c0,9.505,3.353,17.611,10.059,24.316C16.765,96.646,24.87,100,34.375,100H100V0z"/>
</g>
</g></g><g transform="translate(175,105) scale(0.07,0.07)"><g transform="" style="fill: rgb(51, 63, 112);">
<rect width="100" height="100"/>
</g></g><g transform="translate(189,105) scale(0.07,0.07)"><g transform="" style="fill: rgb(51, 63, 112);">
<rect width="100" height="100"/>
</g></g><g transform="translate(0,112) scale(0.07,0.07)"><g transform="" style="fill: rgb(51, 63, 112);">
<g>
	<path d="M100,34.375V0H34.375C24.87,0,16.764,3.353,10.059,10.059S0,24.87,0,34.375v31.25c0,9.505,3.353,17.611,10.059,24.316
		C16.765,96.646,24.87,100,34.375,100H100V34.375z"/>
</g>
</g></g><g transform="translate(7,112) scale(0.07,0.07)"><g transform="" style="fill: rgb(51, 63, 112);">
<rect width="100" height="100"/>
</g></g><g transform="translate(14,112) scale(0.07,0.07)"><g transform="" style="fill: rgb(51, 63, 112);">
<rect width="100" height="100"/>
</g></g><g transform="translate(42,112) scale(0.07,0.07)"><g transform="" style="fill: rgb(51, 63, 112);">
<g>
	<path d="M100,34.375V0H34.375C24.87,0,16.764,3.353,10.059,10.059S0,24.87,0,34.375v31.25c0,9.505,3.353,17.611,10.059,24.316
		C16.765,96.646,24.87,100,34.375,100H100V34.375z"/>
</g>
</g></g><g transform="translate(49,112) scale(0.07,0.07)"><g transform="" style="fill: rgb(51, 63, 112);">
<g>
	<path d="M100,0H0v100h65.625c9.505,0,17.611-3.354,24.316-10.059C96.646,83.236,100,75.13,100,65.625V0z"/>
</g>
</g></g><g transform="translate(63,112) scale(0.07,0.07)"><g transform="" style="fill: rgb(51, 63, 112);">
<g>
	<path d="M100,65.625c0,9.507-3.355,17.611-10.059,24.316C83.236,96.645,75.132,100,65.625,100h-31.25
		c-9.504,0-17.61-3.355-24.315-10.059C3.354,83.236,0,75.132,0,65.625v-31.25c0-9.504,3.353-17.61,10.059-24.315
		C16.766,3.354,24.871,0,34.375,0h31.25c9.508,0,17.613,3.353,24.316,10.059C96.646,16.766,100,24.871,100,34.375V65.625z"/>
</g>
</g></g><g transform="translate(112,112) scale(0.07,0.07)"><g transform="" style="fill: rgb(51, 63, 112);">
<g>
	<path d="M100,34.375V0H34.375C24.87,0,16.764,3.353,10.059,10.059S0,24.87,0,34.375V100h100V34.375z"/>
</g>
</g></g><g transform="translate(119,112) scale(0.07,0.07)"><g transform="" style="fill: rgb(51, 63, 112);">
<rect width="100" height="100"/>
</g></g><g transform="translate(147,112) scale(0.07,0.07)"><g transform="" style="fill: rgb(51, 63, 112);">
<rect width="100" height="100"/>
</g></g><g transform="translate(154,112) scale(0.07,0.07)"><g transform="" style="fill: rgb(51, 63, 112);">
<g>
	<path d="M100,34.375c0-9.505-3.354-17.611-10.059-24.316C83.236,3.354,75.13,0,65.625,0H0v100h100V34.375z"/>
</g>
</g></g><g transform="translate(175,112) scale(0.07,0.07)"><g transform="" style="fill: rgb(51, 63, 112);">
<rect width="100" height="100"/>
</g></g><g transform="translate(189,112) scale(0.07,0.07)"><g transform="" style="fill: rgb(51, 63, 112);">
<g>
	<path d="M100,0H0v65.625c0,9.505,3.353,17.611,10.059,24.316C16.765,96.646,24.87,100,34.375,100H100V0z"/>
</g>
</g></g><g transform="translate(196,112) scale(0.07,0.07)"><g transform="" style="fill: rgb(51, 63, 112);">
<g>
	<path d="M100,34.375c0-9.505-3.354-17.611-10.059-24.316C83.236,3.354,75.13,0,65.625,0H0v100h100V34.375z"/>
</g>
</g></g><g transform="translate(14,119) scale(0.07,0.07)"><g transform="" style="fill: rgb(51, 63, 112);">
<g>
	<path d="M100,0H0v65.625c0,9.505,3.353,17.611,10.059,24.316C16.765,96.646,24.87,100,34.375,100H100V0z"/>
</g>
</g></g><g transform="translate(21,119) scale(0.07,0.07)"><g transform="" style="fill: rgb(51, 63, 112);">
<g>
	<path d="M65.625,0H0v100h65.625c9.505,0,17.611-3.354,24.316-10.059C96.646,83.236,100,75.13,100,65.625v-31.25
		c0-9.505-3.354-17.611-10.059-24.316C83.236,3.354,75.13,0,65.625,0z"/>
</g>
</g></g><g transform="translate(35,119) scale(0.07,0.07)"><g transform="" style="fill: rgb(51, 63, 112);">
<g>
	<path d="M100,65.625c0,9.507-3.355,17.611-10.059,24.316C83.236,96.645,75.132,100,65.625,100h-31.25
		c-9.504,0-17.61-3.355-24.315-10.059C3.354,83.236,0,75.132,0,65.625v-31.25c0-9.504,3.353-17.61,10.059-24.315
		C16.766,3.354,24.871,0,34.375,0h31.25c9.508,0,17.613,3.353,24.316,10.059C96.646,16.766,100,24.871,100,34.375V65.625z"/>
</g>
</g></g><g transform="translate(56,119) scale(0.07,0.07)"><g transform="" style="fill: rgb(51, 63, 112);">
<g>
	<path d="M100,65.625c0,9.507-3.355,17.611-10.059,24.316C83.236,96.645,75.132,100,65.625,100h-31.25
		c-9.504,0-17.61-3.355-24.315-10.059C3.354,83.236,0,75.132,0,65.625v-31.25c0-9.504,3.353-17.61,10.059-24.315
		C16.766,3.354,24.871,0,34.375,0h31.25c9.508,0,17.613,3.353,24.316,10.059C96.646,16.766,100,24.871,100,34.375V65.625z"/>
</g>
</g></g><g transform="translate(70,119) scale(0.07,0.07)"><g transform="" style="fill: rgb(51, 63, 112);">
<g>
	<path d="M100,34.375V0H34.375C24.87,0,16.764,3.353,10.059,10.059S0,24.87,0,34.375V100h100V34.375z"/>
</g>
</g></g><g transform="translate(77,119) scale(0.07,0.07)"><g transform="" style="fill: rgb(51, 63, 112);">
<rect width="100" height="100"/>
</g></g><g transform="translate(84,119) scale(0.07,0.07)"><g transform="" style="fill: rgb(51, 63, 112);">
<rect width="100" height="100"/>
</g></g><g transform="translate(91,119) scale(0.07,0.07)"><g transform="" style="fill: rgb(51, 63, 112);">
<g>
	<path d="M65.625,0H0v100h65.625c9.505,0,17.611-3.354,24.316-10.059C96.646,83.236,100,75.13,100,65.625v-31.25
		c0-9.505-3.354-17.611-10.059-24.316C83.236,3.354,75.13,0,65.625,0z"/>
</g>
</g></g><g transform="translate(105,119) scale(0.07,0.07)"><g transform="" style="fill: rgb(51, 63, 112);">
<g>
	<path d="M100,34.375V0H34.375C24.87,0,16.764,3.353,10.059,10.059S0,24.87,0,34.375V100h100V34.375z"/>
</g>
</g></g><g transform="translate(112,119) scale(0.07,0.07)"><g transform="" style="fill: rgb(51, 63, 112);">
<rect width="100" height="100"/>
</g></g><g transform="translate(119,119) scale(0.07,0.07)"><g transform="" style="fill: rgb(51, 63, 112);">
<rect width="100" height="100"/>
</g></g><g transform="translate(126,119) scale(0.07,0.07)"><g transform="" style="fill: rgb(51, 63, 112);">
<g>
	<path d="M65.625,0H0v100h65.625c9.505,0,17.611-3.354,24.316-10.059C96.646,83.236,100,75.13,100,65.625v-31.25
		c0-9.505-3.354-17.611-10.059-24.316C83.236,3.354,75.13,0,65.625,0z"/>
</g>
</g></g><g transform="translate(140,119) scale(0.07,0.07)"><g transform="" style="fill: rgb(51, 63, 112);">
<g>
	<path d="M100,34.375V0H34.375C24.87,0,16.764,3.353,10.059,10.059S0,24.87,0,34.375v31.25c0,9.505,3.353,17.611,10.059,24.316
		C16.765,96.646,24.87,100,34.375,100H100V34.375z"/>
</g>
</g></g><g transform="translate(147,119) scale(0.07,0.07)"><g transform="" style="fill: rgb(51, 63, 112);">
<rect width="100" height="100"/>
</g></g><g transform="translate(154,119) scale(0.07,0.07)"><g transform="" style="fill: rgb(51, 63, 112);">
<g>
	<path d="M100,0H0v100h65.625c9.505,0,17.611-3.354,24.316-10.059C96.646,83.236,100,75.13,100,65.625V0z"/>
</g>
</g></g><g transform="translate(175,119) scale(0.07,0.07)"><g transform="" style="fill: rgb(51, 63, 112);">
<g>
	<path d="M100,0H0v65.625c0,9.505,3.353,17.611,10.059,24.316C16.765,96.646,24.87,100,34.375,100H100V0z"/>
</g>
</g></g><g transform="translate(182,119) scale(0.07,0.07)"><g transform="" style="fill: rgb(51, 63, 112);">
<g>
	<path d="M65.625,0H0v100h65.625c9.505,0,17.611-3.354,24.316-10.059C96.646,83.236,100,75.13,100,65.625v-31.25
		c0-9.505-3.354-17.611-10.059-24.316C83.236,3.354,75.13,0,65.625,0z"/>
</g>
</g></g><g transform="translate(196,119) scale(0.07,0.07)"><g transform="" style="fill: rgb(51, 63, 112);">
<rect width="100" height="100"/>
</g></g><g transform="translate(0,126) scale(0.07,0.07)"><g transform="" style="fill: rgb(51, 63, 112);">
<g>
	<path d="M100,65.625c0,9.507-3.355,17.611-10.059,24.316C83.236,96.645,75.132,100,65.625,100h-31.25
		c-9.504,0-17.61-3.355-24.315-10.059C3.354,83.236,0,75.132,0,65.625v-31.25c0-9.504,3.353-17.61,10.059-24.315
		C16.766,3.354,24.871,0,34.375,0h31.25c9.508,0,17.613,3.353,24.316,10.059C96.646,16.766,100,24.871,100,34.375V65.625z"/>
</g>
</g></g><g transform="translate(42,126) scale(0.07,0.07)"><g transform="" style="fill: rgb(51, 63, 112);">
<g>
	<path d="M100,65.625c0,9.507-3.355,17.611-10.059,24.316C83.236,96.645,75.132,100,65.625,100h-31.25
		c-9.504,0-17.61-3.355-24.315-10.059C3.354,83.236,0,75.132,0,65.625v-31.25c0-9.504,3.353-17.61,10.059-24.315
		C16.766,3.354,24.871,0,34.375,0h31.25c9.508,0,17.613,3.353,24.316,10.059C96.646,16.766,100,24.871,100,34.375V65.625z"/>
</g>
</g></g><g transform="translate(63,126) scale(0.07,0.07)"><g transform="" style="fill: rgb(51, 63, 112);">
<g>
	<path d="M100,34.375V0H34.375C24.87,0,16.764,3.353,10.059,10.059S0,24.87,0,34.375V100h100V34.375z"/>
</g>
</g></g><g transform="translate(70,126) scale(0.07,0.07)"><g transform="" style="fill: rgb(51, 63, 112);">
<rect width="100" height="100"/>
</g></g><g transform="translate(77,126) scale(0.07,0.07)"><g transform="" style="fill: rgb(51, 63, 112);">
<rect width="100" height="100"/>
</g></g><g transform="translate(98,126) scale(0.07,0.07)"><g transform="" style="fill: rgb(51, 63, 112);">
<g>
	<path d="M100,34.375V0H34.375C24.87,0,16.764,3.353,10.059,10.059S0,24.87,0,34.375V100h100V34.375z"/>
</g>
</g></g><g transform="translate(105,126) scale(0.07,0.07)"><g transform="" style="fill: rgb(51, 63, 112);">
<rect width="100" height="100"/>
</g></g><g transform="translate(112,126) scale(0.07,0.07)"><g transform="" style="fill: rgb(51, 63, 112);">
<rect width="100" height="100"/>
</g></g><g transform="translate(147,126) scale(0.07,0.07)"><g transform="" style="fill: rgb(51, 63, 112);">
<g>
	<path d="M99.805,32.031H100V0H0v32.031h0.195C0.065,33.073,0,33.854,0,34.375v31.25c0,9.505,3.353,17.611,10.059,24.316
		C16.765,96.646,24.87,100,34.375,100h31.25c9.505,0,17.611-3.354,24.316-10.059C96.646,83.236,100,75.13,100,65.625v-31.25
		C100,33.854,99.937,33.073,99.805,32.031z"/>
</g>
</g></g><g transform="translate(189,126) scale(0.07,0.07)"><g transform="" style="fill: rgb(51, 63, 112);">
<g>
	<path d="M100,34.375V0H34.375C24.87,0,16.764,3.353,10.059,10.059S0,24.87,0,34.375V100h100V34.375z"/>
</g>
</g></g><g transform="translate(196,126) scale(0.07,0.07)"><g transform="" style="fill: rgb(51, 63, 112);">
<g>
	<path d="M100,0H0v100h65.625c9.505,0,17.611-3.354,24.316-10.059C96.646,83.236,100,75.13,100,65.625V0z"/>
</g>
</g></g><g transform="translate(7,133) scale(0.07,0.07)"><g transform="" style="fill: rgb(51, 63, 112);">
<g>
	<path d="M100,34.375V0H34.375C24.87,0,16.764,3.353,10.059,10.059S0,24.87,0,34.375v31.25c0,9.505,3.353,17.611,10.059,24.316
		C16.765,96.646,24.87,100,34.375,100H100V34.375z"/>
</g>
</g></g><g transform="translate(14,133) scale(0.07,0.07)"><g transform="" style="fill: rgb(51, 63, 112);">
<g>
	<path d="M100,34.375c0-9.505-3.354-17.611-10.059-24.316C83.236,3.354,75.13,0,65.625,0H0v100h100V34.375z"/>
</g>
</g></g><g transform="translate(28,133) scale(0.07,0.07)"><g transform="" style="fill: rgb(51, 63, 112);">
<g>
	<path d="M100,65.625c0,9.507-3.355,17.611-10.059,24.316C83.236,96.645,75.132,100,65.625,100h-31.25
		c-9.504,0-17.61-3.355-24.315-10.059C3.354,83.236,0,75.132,0,65.625v-31.25c0-9.504,3.353-17.61,10.059-24.315
		C16.766,3.354,24.871,0,34.375,0h31.25c9.508,0,17.613,3.353,24.316,10.059C96.646,16.766,100,24.871,100,34.375V65.625z"/>
</g>
</g></g><g transform="translate(49,133) scale(0.07,0.07)"><g transform="" style="fill: rgb(51, 63, 112);">
<g>
	<path d="M100,34.375V0H34.375C24.87,0,16.764,3.353,10.059,10.059S0,24.87,0,34.375V100h100V34.375z"/>
</g>
</g></g><g transform="translate(56,133) scale(0.07,0.07)"><g transform="" style="fill: rgb(51, 63, 112);">
<rect width="100" height="100"/>
</g></g><g transform="translate(63,133) scale(0.07,0.07)"><g transform="" style="fill: rgb(51, 63, 112);">
<rect width="100" height="100"/>
</g></g><g transform="translate(70,133) scale(0.07,0.07)"><g transform="" style="fill: rgb(51, 63, 112);">
<rect width="100" height="100"/>
</g></g><g transform="translate(77,133) scale(0.07,0.07)"><g transform="" style="fill: rgb(51, 63, 112);">
<rect width="100" height="100"/>
</g></g><g transform="translate(91,133) scale(0.07,0.07)"><g transform="" style="fill: rgb(51, 63, 112);">
<g>
	<path d="M100,34.375V0H34.375C24.87,0,16.764,3.353,10.059,10.059S0,24.87,0,34.375v31.25c0,9.505,3.353,17.611,10.059,24.316
		C16.765,96.646,24.87,100,34.375,100H100V34.375z"/>
</g>
</g></g><g transform="translate(98,133) scale(0.07,0.07)"><g transform="" style="fill: rgb(51, 63, 112);">
<rect width="100" height="100"/>
</g></g><g transform="translate(112,133) scale(0.07,0.07)"><g transform="" style="fill: rgb(51, 63, 112);">
<g>
	<path d="M100,0H0v65.625c0,9.505,3.353,17.611,10.059,24.316C16.765,96.646,24.87,100,34.375,100H100V0z"/>
</g>
</g></g><g transform="translate(119,133) scale(0.07,0.07)"><g transform="" style="fill: rgb(51, 63, 112);">
<g>
	<path d="M65.625,0H0v100h65.625c9.505,0,17.611-3.354,24.316-10.059C96.646,83.236,100,75.13,100,65.625v-31.25
		c0-9.505-3.354-17.611-10.059-24.316C83.236,3.354,75.13,0,65.625,0z"/>
</g>
</g></g><g transform="translate(140,133) scale(0.07,0.07)"><g transform="" style="fill: rgb(51, 63, 112);">
<g>
	<path d="M100,34.375c0-9.505-3.354-17.611-10.059-24.316C83.236,3.354,75.13,0,65.625,0h-31.25C24.87,0,16.764,3.353,10.059,10.059
		S0,24.87,0,34.375v31.25c0,0.521,0.065,1.303,0.195,2.344H0V100h100V67.969h-0.195c0.132-1.041,0.195-1.822,0.195-2.344V34.375z"/>
</g>
</g></g><g transform="translate(154,133) scale(0.07,0.07)"><g transform="" style="fill: rgb(51, 63, 112);">
<g>
	<path d="M100,34.375c0-9.505-3.354-17.611-10.059-24.316C83.236,3.354,75.13,0,65.625,0h-31.25C24.87,0,16.764,3.353,10.059,10.059
		S0,24.87,0,34.375v31.25c0,0.521,0.065,1.303,0.195,2.344H0V100h100V67.969h-0.195c0.132-1.041,0.195-1.822,0.195-2.344V34.375z"/>
</g>
</g></g><g transform="translate(168,133) scale(0.07,0.07)"><g transform="" style="fill: rgb(51, 63, 112);">
<g>
	<path d="M100,34.375V0H34.375C24.87,0,16.764,3.353,10.059,10.059S0,24.87,0,34.375V100h100V34.375z"/>
</g>
</g></g><g transform="translate(175,133) scale(0.07,0.07)"><g transform="" style="fill: rgb(51, 63, 112);">
<g>
	<path d="M65.625,0H0v100h65.625c9.505,0,17.611-3.354,24.316-10.059C96.646,83.236,100,75.13,100,65.625v-31.25
		c0-9.505-3.354-17.611-10.059-24.316C83.236,3.354,75.13,0,65.625,0z"/>
</g>
</g></g><g transform="translate(189,133) scale(0.07,0.07)"><g transform="" style="fill: rgb(51, 63, 112);">
<g>
	<path d="M99.805,32.031H100V0H0v32.031h0.195C0.065,33.073,0,33.854,0,34.375v31.25c0,9.505,3.353,17.611,10.059,24.316
		C16.765,96.646,24.87,100,34.375,100h31.25c9.505,0,17.611-3.354,24.316-10.059C96.646,83.236,100,75.13,100,65.625v-31.25
		C100,33.854,99.937,33.073,99.805,32.031z"/>
</g>
</g></g><g transform="translate(0,140) scale(0.07,0.07)"><g transform="" style="fill: rgb(51, 63, 112);">
<g>
	<path d="M100,65.625c0,9.507-3.355,17.611-10.059,24.316C83.236,96.645,75.132,100,65.625,100h-31.25
		c-9.504,0-17.61-3.355-24.315-10.059C3.354,83.236,0,75.132,0,65.625v-31.25c0-9.504,3.353-17.61,10.059-24.315
		C16.766,3.354,24.871,0,34.375,0h31.25c9.508,0,17.613,3.353,24.316,10.059C96.646,16.766,100,24.871,100,34.375V65.625z"/>
</g>
</g></g><g transform="translate(14,140) scale(0.07,0.07)"><g transform="" style="fill: rgb(51, 63, 112);">
<g>
	<path d="M100,0H0v65.625c0,9.505,3.353,17.611,10.059,24.316C16.765,96.646,24.87,100,34.375,100H100V0z"/>
</g>
</g></g><g transform="translate(21,140) scale(0.07,0.07)"><g transform="" style="fill: rgb(51, 63, 112);">
<g>
	<path d="M65.625,0H0v100h65.625c9.505,0,17.611-3.354,24.316-10.059C96.646,83.236,100,75.13,100,65.625v-31.25
		c0-9.505-3.354-17.611-10.059-24.316C83.236,3.354,75.13,0,65.625,0z"/>
</g>
</g></g><g transform="translate(42,140) scale(0.07,0.07)"><g transform="" style="fill: rgb(51, 63, 112);">
<g>
	<path d="M100,34.375V0H34.375C24.87,0,16.764,3.353,10.059,10.059S0,24.87,0,34.375v31.25c0,9.505,3.353,17.611,10.059,24.316
		C16.765,96.646,24.87,100,34.375,100H100V34.375z"/>
</g>
</g></g><g transform="translate(49,140) scale(0.07,0.07)"><g transform="" style="fill: rgb(51, 63, 112);">
<g>
	<path d="M100,0H0v100h65.625c9.505,0,17.611-3.354,24.316-10.059C96.646,83.236,100,75.13,100,65.625V0z"/>
</g>
</g></g><g transform="translate(63,140) scale(0.07,0.07)"><g transform="" style="fill: rgb(51, 63, 112);">
<rect width="100" height="100"/>
</g></g><g transform="translate(70,140) scale(0.07,0.07)"><g transform="" style="fill: rgb(51, 63, 112);">
<rect width="100" height="100"/>
</g></g><g transform="translate(77,140) scale(0.07,0.07)"><g transform="" style="fill: rgb(51, 63, 112);">
<rect width="100" height="100"/>
</g></g><g transform="translate(84,140) scale(0.07,0.07)"><g transform="" style="fill: rgb(51, 63, 112);">
<g>
	<path d="M100,34.375c0-9.505-3.354-17.611-10.059-24.316C83.236,3.354,75.13,0,65.625,0H0v100h100V34.375z"/>
</g>
</g></g><g transform="translate(98,140) scale(0.07,0.07)"><g transform="" style="fill: rgb(51, 63, 112);">
<rect width="100" height="100"/>
</g></g><g transform="translate(105,140) scale(0.07,0.07)"><g transform="" style="fill: rgb(51, 63, 112);">
<g>
	<path d="M100,34.375c0-9.505-3.354-17.611-10.059-24.316C83.236,3.354,75.13,0,65.625,0H0v100h100V34.375z"/>
</g>
</g></g><g transform="translate(126,140) scale(0.07,0.07)"><g transform="" style="fill: rgb(51, 63, 112);">
<g>
	<path d="M100,34.375V0H34.375C24.87,0,16.764,3.353,10.059,10.059S0,24.87,0,34.375v31.25c0,9.505,3.353,17.611,10.059,24.316
		C16.765,96.646,24.87,100,34.375,100H100V34.375z"/>
</g>
</g></g><g transform="translate(133,140) scale(0.07,0.07)"><g transform="" style="fill: rgb(51, 63, 112);">
<rect width="100" height="100"/>
</g></g><g transform="translate(140,140) scale(0.07,0.07)"><g transform="" style="fill: rgb(51, 63, 112);">
<rect width="100" height="100"/>
</g></g><g transform="translate(147,140) scale(0.07,0.07)"><g transform="" style="fill: rgb(51, 63, 112);">
<rect width="100" height="100"/>
</g></g><g transform="translate(154,140) scale(0.07,0.07)"><g transform="" style="fill: rgb(51, 63, 112);">
<rect width="100" height="100"/>
</g></g><g transform="translate(161,140) scale(0.07,0.07)"><g transform="" style="fill: rgb(51, 63, 112);">
<rect width="100" height="100"/>
</g></g><g transform="translate(168,140) scale(0.07,0.07)"><g transform="" style="fill: rgb(51, 63, 112);">
<rect width="100" height="100"/>
</g></g><g transform="translate(56,147) scale(0.07,0.07)"><g transform="" style="fill: rgb(51, 63, 112);">
<g>
	<path d="M100,34.375V0H34.375C24.87,0,16.764,3.353,10.059,10.059S0,24.87,0,34.375v31.25c0,9.505,3.353,17.611,10.059,24.316
		C16.765,96.646,24.87,100,34.375,100H100V34.375z"/>
</g>
</g></g><g transform="translate(63,147) scale(0.07,0.07)"><g transform="" style="fill: rgb(51, 63, 112);">
<rect width="100" height="100"/>
</g></g><g transform="translate(70,147) scale(0.07,0.07)"><g transform="" style="fill: rgb(51, 63, 112);">
<rect width="100" height="100"/>
</g></g><g transform="translate(77,147) scale(0.07,0.07)"><g transform="" style="fill: rgb(51, 63, 112);">
<rect width="100" height="100"/>
</g></g><g transform="translate(84,147) scale(0.07,0.07)"><g transform="" style="fill: rgb(51, 63, 112);">
<g>
	<path d="M100,0H0v100h65.625c9.505,0,17.611-3.354,24.316-10.059C96.646,83.236,100,75.13,100,65.625V0z"/>
</g>
</g></g><g transform="translate(98,147) scale(0.07,0.07)"><g transform="" style="fill: rgb(51, 63, 112);">
<g>
	<path d="M100,0H0v65.625c0,9.505,3.353,17.611,10.059,24.316C16.765,96.646,24.87,100,34.375,100H100V0z"/>
</g>
</g></g><g transform="translate(105,147) scale(0.07,0.07)"><g transform="" style="fill: rgb(51, 63, 112);">
<g>
	<path d="M100,0H0v100h65.625c9.505,0,17.611-3.354,24.316-10.059C96.646,83.236,100,75.13,100,65.625V0z"/>
</g>
</g></g><g transform="translate(133,147) scale(0.07,0.07)"><g transform="" style="fill: rgb(51, 63, 112);">
<rect width="100" height="100"/>
</g></g><g transform="translate(140,147) scale(0.07,0.07)"><g transform="" style="fill: rgb(51, 63, 112);">
<rect width="100" height="100"/>
</g></g><g transform="translate(168,147) scale(0.07,0.07)"><g transform="" style="fill: rgb(51, 63, 112);">
<rect width="100" height="100"/>
</g></g><g transform="translate(182,147) scale(0.07,0.07)"><g transform="" style="fill: rgb(51, 63, 112);">
<g>
	<path d="M100,34.375V0H34.375C24.87,0,16.764,3.353,10.059,10.059S0,24.87,0,34.375v31.25c0,9.505,3.353,17.611,10.059,24.316
		C16.765,96.646,24.87,100,34.375,100H100V34.375z"/>
</g>
</g></g><g transform="translate(189,147) scale(0.07,0.07)"><g transform="" style="fill: rgb(51, 63, 112);">
<rect width="100" height="100"/>
</g></g><g transform="translate(196,147) scale(0.07,0.07)"><g transform="" style="fill: rgb(51, 63, 112);">
<g>
	<path d="M100,34.375c0-9.505-3.354-17.611-10.059-24.316C83.236,3.354,75.13,0,65.625,0H0v100h100V34.375z"/>
</g>
</g></g><g transform="translate(91,154) scale(0.07,0.07)"><g transform="" style="fill: rgb(51, 63, 112);">
<g>
	<path d="M100,65.625c0,9.507-3.355,17.611-10.059,24.316C83.236,96.645,75.132,100,65.625,100h-31.25
		c-9.504,0-17.61-3.355-24.315-10.059C3.354,83.236,0,75.132,0,65.625v-31.25c0-9.504,3.353-17.61,10.059-24.315
		C16.766,3.354,24.871,0,34.375,0h31.25c9.508,0,17.613,3.353,24.316,10.059C96.646,16.766,100,24.871,100,34.375V65.625z"/>
</g>
</g></g><g transform="translate(119,154) scale(0.07,0.07)"><g transform="" style="fill: rgb(51, 63, 112);">
<g>
	<path d="M100,65.625c0,9.507-3.355,17.611-10.059,24.316C83.236,96.645,75.132,100,65.625,100h-31.25
		c-9.504,0-17.61-3.355-24.315-10.059C3.354,83.236,0,75.132,0,65.625v-31.25c0-9.504,3.353-17.61,10.059-24.315
		C16.766,3.354,24.871,0,34.375,0h31.25c9.508,0,17.613,3.353,24.316,10.059C96.646,16.766,100,24.871,100,34.375V65.625z"/>
</g>
</g></g><g transform="translate(133,154) scale(0.07,0.07)"><g transform="" style="fill: rgb(51, 63, 112);">
<g>
	<path d="M100,0H0v65.625c0,9.505,3.353,17.611,10.059,24.316C16.765,96.646,24.87,100,34.375,100H100V0z"/>
</g>
</g></g><g transform="translate(140,154) scale(0.07,0.07)"><g transform="" style="fill: rgb(51, 63, 112);">
<rect width="100" height="100"/>
</g></g><g transform="translate(154,154) scale(0.07,0.07)"><g transform="" style="fill: rgb(51, 63, 112);">
<g>
	<path d="M100,65.625c0,9.507-3.355,17.611-10.059,24.316C83.236,96.645,75.132,100,65.625,100h-31.25
		c-9.504,0-17.61-3.355-24.315-10.059C3.354,83.236,0,75.132,0,65.625v-31.25c0-9.504,3.353-17.61,10.059-24.315
		C16.766,3.354,24.871,0,34.375,0h31.25c9.508,0,17.613,3.353,24.316,10.059C96.646,16.766,100,24.871,100,34.375V65.625z"/>
</g>
</g></g><g transform="translate(168,154) scale(0.07,0.07)"><g transform="" style="fill: rgb(51, 63, 112);">
<rect width="100" height="100"/>
</g></g><g transform="translate(175,154) scale(0.07,0.07)"><g transform="" style="fill: rgb(51, 63, 112);">
<g>
	<path d="M100,34.375c0-9.505-3.354-17.611-10.059-24.316C83.236,3.354,75.13,0,65.625,0H0v100h100V34.375z"/>
</g>
</g></g><g transform="translate(189,154) scale(0.07,0.07)"><g transform="" style="fill: rgb(51, 63, 112);">
<g>
	<path d="M100,0H0v65.625c0,9.505,3.353,17.611,10.059,24.316C16.765,96.646,24.87,100,34.375,100H100V0z"/>
</g>
</g></g><g transform="translate(196,154) scale(0.07,0.07)"><g transform="" style="fill: rgb(51, 63, 112);">
<rect width="100" height="100"/>
</g></g><g transform="translate(63,161) scale(0.07,0.07)"><g transform="" style="fill: rgb(51, 63, 112);">
<g>
	<path d="M100,34.375c0-9.505-3.354-17.611-10.059-24.316C83.236,3.354,75.13,0,65.625,0h-31.25C24.87,0,16.764,3.353,10.059,10.059
		S0,24.87,0,34.375v31.25c0,0.521,0.065,1.303,0.195,2.344H0V100h100V67.969h-0.195c0.132-1.041,0.195-1.822,0.195-2.344V34.375z"/>
</g>
</g></g><g transform="translate(77,161) scale(0.07,0.07)"><g transform="" style="fill: rgb(51, 63, 112);">
<g>
	<path d="M100,34.375V0H34.375C24.87,0,16.764,3.353,10.059,10.059S0,24.87,0,34.375v31.25c0,9.505,3.353,17.611,10.059,24.316
		C16.765,96.646,24.87,100,34.375,100H100V34.375z"/>
</g>
</g></g><g transform="translate(84,161) scale(0.07,0.07)"><g transform="" style="fill: rgb(51, 63, 112);">
<g>
	<path d="M65.625,0H0v100h65.625c9.505,0,17.611-3.354,24.316-10.059C96.646,83.236,100,75.13,100,65.625v-31.25
		c0-9.505-3.354-17.611-10.059-24.316C83.236,3.354,75.13,0,65.625,0z"/>
</g>
</g></g><g transform="translate(105,161) scale(0.07,0.07)"><g transform="" style="fill: rgb(51, 63, 112);">
<g>
	<path d="M100,65.625c0,9.507-3.355,17.611-10.059,24.316C83.236,96.645,75.132,100,65.625,100h-31.25
		c-9.504,0-17.61-3.355-24.315-10.059C3.354,83.236,0,75.132,0,65.625v-31.25c0-9.504,3.353-17.61,10.059-24.315
		C16.766,3.354,24.871,0,34.375,0h31.25c9.508,0,17.613,3.353,24.316,10.059C96.646,16.766,100,24.871,100,34.375V65.625z"/>
</g>
</g></g><g transform="translate(140,161) scale(0.07,0.07)"><g transform="" style="fill: rgb(51, 63, 112);">
<rect width="100" height="100"/>
</g></g><g transform="translate(168,161) scale(0.07,0.07)"><g transform="" style="fill: rgb(51, 63, 112);">
<rect width="100" height="100"/>
</g></g><g transform="translate(175,161) scale(0.07,0.07)"><g transform="" style="fill: rgb(51, 63, 112);">
<g>
	<path d="M100,0H0v100h65.625c9.505,0,17.611-3.354,24.316-10.059C96.646,83.236,100,75.13,100,65.625V0z"/>
</g>
</g></g><g transform="translate(196,161) scale(0.07,0.07)"><g transform="" style="fill: rgb(51, 63, 112);">
<g>
	<path d="M99.805,32.031H100V0H0v32.031h0.195C0.065,33.073,0,33.854,0,34.375v31.25c0,9.505,3.353,17.611,10.059,24.316
		C16.765,96.646,24.87,100,34.375,100h31.25c9.505,0,17.611-3.354,24.316-10.059C96.646,83.236,100,75.13,100,65.625v-31.25
		C100,33.854,99.937,33.073,99.805,32.031z"/>
</g>
</g></g><g transform="translate(56,168) scale(0.07,0.07)"><g transform="" style="fill: rgb(51, 63, 112);">
<g>
	<path d="M100,34.375V0H34.375C24.87,0,16.764,3.353,10.059,10.059S0,24.87,0,34.375v31.25c0,9.505,3.353,17.611,10.059,24.316
		C16.765,96.646,24.87,100,34.375,100H100V34.375z"/>
</g>
</g></g><g transform="translate(63,168) scale(0.07,0.07)"><g transform="" style="fill: rgb(51, 63, 112);">
<rect width="100" height="100"/>
</g></g><g transform="translate(70,168) scale(0.07,0.07)"><g transform="" style="fill: rgb(51, 63, 112);">
<g>
	<path d="M100,34.375c0-9.505-3.354-17.611-10.059-24.316C83.236,3.354,75.13,0,65.625,0H0v100h100V34.375z"/>
</g>
</g></g><g transform="translate(112,168) scale(0.07,0.07)"><g transform="" style="fill: rgb(51, 63, 112);">
<g>
	<path d="M100,34.375c0-9.505-3.354-17.611-10.059-24.316C83.236,3.354,75.13,0,65.625,0h-31.25C24.87,0,16.764,3.353,10.059,10.059
		S0,24.87,0,34.375v31.25c0,0.521,0.065,1.303,0.195,2.344H0V100h100V67.969h-0.195c0.132-1.041,0.195-1.822,0.195-2.344V34.375z"/>
</g>
</g></g><g transform="translate(140,168) scale(0.07,0.07)"><g transform="" style="fill: rgb(51, 63, 112);">
<g>
	<path d="M100,0H0v65.625c0,9.505,3.353,17.611,10.059,24.316C16.765,96.646,24.87,100,34.375,100H100V0z"/>
</g>
</g></g><g transform="translate(147,168) scale(0.07,0.07)"><g transform="" style="fill: rgb(51, 63, 112);">
<rect width="100" height="100"/>
</g></g><g transform="translate(154,168) scale(0.07,0.07)"><g transform="" style="fill: rgb(51, 63, 112);">
<rect width="100" height="100"/>
</g></g><g transform="translate(161,168) scale(0.07,0.07)"><g transform="" style="fill: rgb(51, 63, 112);">
<rect width="100" height="100"/>
</g></g><g transform="translate(168,168) scale(0.07,0.07)"><g transform="" style="fill: rgb(51, 63, 112);">
<rect width="100" height="100"/>
</g></g><g transform="translate(63,175) scale(0.07,0.07)"><g transform="" style="fill: rgb(51, 63, 112);">
<rect width="100" height="100"/>
</g></g><g transform="translate(70,175) scale(0.07,0.07)"><g transform="" style="fill: rgb(51, 63, 112);">
<rect width="100" height="100"/>
</g></g><g transform="translate(77,175) scale(0.07,0.07)"><g transform="" style="fill: rgb(51, 63, 112);">
<rect width="100" height="100"/>
</g></g><g transform="translate(84,175) scale(0.07,0.07)"><g transform="" style="fill: rgb(51, 63, 112);">
<g>
	<path d="M65.625,0H0v100h65.625c9.505,0,17.611-3.354,24.316-10.059C96.646,83.236,100,75.13,100,65.625v-31.25
		c0-9.505-3.354-17.611-10.059-24.316C83.236,3.354,75.13,0,65.625,0z"/>
</g>
</g></g><g transform="translate(105,175) scale(0.07,0.07)"><g transform="" style="fill: rgb(51, 63, 112);">
<g>
	<path d="M100,34.375V0H34.375C24.87,0,16.764,3.353,10.059,10.059S0,24.87,0,34.375V100h100V34.375z"/>
</g>
</g></g><g transform="translate(112,175) scale(0.07,0.07)"><g transform="" style="fill: rgb(51, 63, 112);">
<rect width="100" height="100"/>
</g></g><g transform="translate(119,175) scale(0.07,0.07)"><g transform="" style="fill: rgb(51, 63, 112);">
<g>
	<path d="M65.625,0H0v100h65.625c9.505,0,17.611-3.354,24.316-10.059C96.646,83.236,100,75.13,100,65.625v-31.25
		c0-9.505-3.354-17.611-10.059-24.316C83.236,3.354,75.13,0,65.625,0z"/>
</g>
</g></g><g transform="translate(133,175) scale(0.07,0.07)"><g transform="" style="fill: rgb(51, 63, 112);">
<g>
	<path d="M100,34.375c0-9.505-3.354-17.611-10.059-24.316C83.236,3.354,75.13,0,65.625,0h-31.25C24.87,0,16.764,3.353,10.059,10.059
		S0,24.87,0,34.375v31.25c0,0.521,0.065,1.303,0.195,2.344H0V100h100V67.969h-0.195c0.132-1.041,0.195-1.822,0.195-2.344V34.375z"/>
</g>
</g></g><g transform="translate(161,175) scale(0.07,0.07)"><g transform="" style="fill: rgb(51, 63, 112);">
<g>
	<path d="M100,0H0v65.625c0,9.505,3.353,17.611,10.059,24.316C16.765,96.646,24.87,100,34.375,100H100V0z"/>
</g>
</g></g><g transform="translate(168,175) scale(0.07,0.07)"><g transform="" style="fill: rgb(51, 63, 112);">
<rect width="100" height="100"/>
</g></g><g transform="translate(182,175) scale(0.07,0.07)"><g transform="" style="fill: rgb(51, 63, 112);">
<g>
	<path d="M100,65.625c0,9.507-3.355,17.611-10.059,24.316C83.236,96.645,75.132,100,65.625,100h-31.25
		c-9.504,0-17.61-3.355-24.315-10.059C3.354,83.236,0,75.132,0,65.625v-31.25c0-9.504,3.353-17.61,10.059-24.315
		C16.766,3.354,24.871,0,34.375,0h31.25c9.508,0,17.613,3.353,24.316,10.059C96.646,16.766,100,24.871,100,34.375V65.625z"/>
</g>
</g></g><g transform="translate(56,182) scale(0.07,0.07)"><g transform="" style="fill: rgb(51, 63, 112);">
<g>
	<path d="M100,34.375V0H34.375C24.87,0,16.764,3.353,10.059,10.059S0,24.87,0,34.375v31.25c0,9.505,3.353,17.611,10.059,24.316
		C16.765,96.646,24.87,100,34.375,100H100V34.375z"/>
</g>
</g></g><g transform="translate(63,182) scale(0.07,0.07)"><g transform="" style="fill: rgb(51, 63, 112);">
<rect width="100" height="100"/>
</g></g><g transform="translate(70,182) scale(0.07,0.07)"><g transform="" style="fill: rgb(51, 63, 112);">
<rect width="100" height="100"/>
</g></g><g transform="translate(77,182) scale(0.07,0.07)"><g transform="" style="fill: rgb(51, 63, 112);">
<g>
	<path d="M100,0H0v100h65.625c9.505,0,17.611-3.354,24.316-10.059C96.646,83.236,100,75.13,100,65.625V0z"/>
</g>
</g></g><g transform="translate(98,182) scale(0.07,0.07)"><g transform="" style="fill: rgb(51, 63, 112);">
<g>
	<path d="M100,34.375V0H34.375C24.87,0,16.764,3.353,10.059,10.059S0,24.87,0,34.375v31.25c0,9.505,3.353,17.611,10.059,24.316
		C16.765,96.646,24.87,100,34.375,100H100V34.375z"/>
</g>
</g></g><g transform="translate(105,182) scale(0.07,0.07)"><g transform="" style="fill: rgb(51, 63, 112);">
<rect width="100" height="100"/>
</g></g><g transform="translate(112,182) scale(0.07,0.07)"><g transform="" style="fill: rgb(51, 63, 112);">
<rect width="100" height="100"/>
</g></g><g transform="translate(126,182) scale(0.07,0.07)"><g transform="" style="fill: rgb(51, 63, 112);">
<g>
	<path d="M100,34.375V0H34.375C24.87,0,16.764,3.353,10.059,10.059S0,24.87,0,34.375V100h100V34.375z"/>
</g>
</g></g><g transform="translate(133,182) scale(0.07,0.07)"><g transform="" style="fill: rgb(51, 63, 112);">
<rect width="100" height="100"/>
</g></g><g transform="translate(140,182) scale(0.07,0.07)"><g transform="" style="fill: rgb(51, 63, 112);">
<g>
	<path d="M100,34.375c0-9.505-3.354-17.611-10.059-24.316C83.236,3.354,75.13,0,65.625,0H0v100h100V34.375z"/>
</g>
</g></g><g transform="translate(168,182) scale(0.07,0.07)"><g transform="" style="fill: rgb(51, 63, 112);">
<g>
	<path d="M100,0H0v65.625c0,9.505,3.353,17.611,10.059,24.316C16.765,96.646,24.87,100,34.375,100H100V0z"/>
</g>
</g></g><g transform="translate(175,182) scale(0.07,0.07)"><g transform="" style="fill: rgb(51, 63, 112);">
<g>
	<path d="M65.625,0H0v100h65.625c9.505,0,17.611-3.354,24.316-10.059C96.646,83.236,100,75.13,100,65.625v-31.25
		c0-9.505-3.354-17.611-10.059-24.316C83.236,3.354,75.13,0,65.625,0z"/>
</g>
</g></g><g transform="translate(196,182) scale(0.07,0.07)"><g transform="" style="fill: rgb(51, 63, 112);">
<g>
	<path d="M100,65.625c0,9.507-3.355,17.611-10.059,24.316C83.236,96.645,75.132,100,65.625,100h-31.25
		c-9.504,0-17.61-3.355-24.315-10.059C3.354,83.236,0,75.132,0,65.625v-31.25c0-9.504,3.353-17.61,10.059-24.315
		C16.766,3.354,24.871,0,34.375,0h31.25c9.508,0,17.613,3.353,24.316,10.059C96.646,16.766,100,24.871,100,34.375V65.625z"/>
</g>
</g></g><g transform="translate(63,189) scale(0.07,0.07)"><g transform="" style="fill: rgb(51, 63, 112);">
<rect width="100" height="100"/>
</g></g><g transform="translate(84,189) scale(0.07,0.07)"><g transform="" style="fill: rgb(51, 63, 112);">
<g>
	<path d="M100,34.375V0H34.375C24.87,0,16.764,3.353,10.059,10.059S0,24.87,0,34.375v31.25c0,9.505,3.353,17.611,10.059,24.316
		C16.765,96.646,24.87,100,34.375,100H100V34.375z"/>
</g>
</g></g><g transform="translate(91,189) scale(0.07,0.07)"><g transform="" style="fill: rgb(51, 63, 112);">
<g>
	<path d="M100,34.375c0-9.505-3.354-17.611-10.059-24.316C83.236,3.354,75.13,0,65.625,0H0v100h100V34.375z"/>
</g>
</g></g><g transform="translate(112,189) scale(0.07,0.07)"><g transform="" style="fill: rgb(51, 63, 112);">
<g>
	<path d="M100,0H0v65.625c0,9.505,3.353,17.611,10.059,24.316C16.765,96.646,24.87,100,34.375,100H100V0z"/>
</g>
</g></g><g transform="translate(119,189) scale(0.07,0.07)"><g transform="" style="fill: rgb(51, 63, 112);">
<rect width="100" height="100"/>
</g></g><g transform="translate(126,189) scale(0.07,0.07)"><g transform="" style="fill: rgb(51, 63, 112);">
<rect width="100" height="100"/>
</g></g><g transform="translate(140,189) scale(0.07,0.07)"><g transform="" style="fill: rgb(51, 63, 112);">
<rect width="100" height="100"/>
</g></g><g transform="translate(147,189) scale(0.07,0.07)"><g transform="" style="fill: rgb(51, 63, 112);">
<g>
	<path d="M100,34.375c0-9.505-3.354-17.611-10.059-24.316C83.236,3.354,75.13,0,65.625,0H0v100h100V34.375z"/>
</g>
</g></g><g transform="translate(161,189) scale(0.07,0.07)"><g transform="" style="fill: rgb(51, 63, 112);">
<g>
	<path d="M100,34.375c0-9.505-3.354-17.611-10.059-24.316C83.236,3.354,75.13,0,65.625,0h-31.25C24.87,0,16.764,3.353,10.059,10.059
		S0,24.87,0,34.375v31.25c0,0.521,0.065,1.303,0.195,2.344H0V100h100V67.969h-0.195c0.132-1.041,0.195-1.822,0.195-2.344V34.375z"/>
</g>
</g></g><g transform="translate(189,189) scale(0.07,0.07)"><g transform="" style="fill: rgb(51, 63, 112);">
<g>
	<path d="M100,34.375c0-9.505-3.354-17.611-10.059-24.316C83.236,3.354,75.13,0,65.625,0h-31.25C24.87,0,16.764,3.353,10.059,10.059
		S0,24.87,0,34.375v31.25c0,0.521,0.065,1.303,0.195,2.344H0V100h100V67.969h-0.195c0.132-1.041,0.195-1.822,0.195-2.344V34.375z"/>
</g>
</g></g><g transform="translate(56,196) scale(0.07,0.07)"><g transform="" style="fill: rgb(51, 63, 112);">
<g>
	<path d="M100,34.375V0H34.375C24.87,0,16.764,3.353,10.059,10.059S0,24.87,0,34.375v31.25c0,9.505,3.353,17.611,10.059,24.316
		C16.765,96.646,24.87,100,34.375,100H100V34.375z"/>
</g>
</g></g><g transform="translate(63,196) scale(0.07,0.07)"><g transform="" style="fill: rgb(51, 63, 112);">
<g>
	<path d="M100,0H0v100h65.625c9.505,0,17.611-3.354,24.316-10.059C96.646,83.236,100,75.13,100,65.625V0z"/>
</g>
</g></g><g transform="translate(91,196) scale(0.07,0.07)"><g transform="" style="fill: rgb(51, 63, 112);">
<g>
	<path d="M100,0H0v65.625c0,9.505,3.353,17.611,10.059,24.316C16.765,96.646,24.87,100,34.375,100H100V0z"/>
</g>
</g></g><g transform="translate(98,196) scale(0.07,0.07)"><g transform="" style="fill: rgb(51, 63, 112);">
<rect width="100" height="100"/>
</g></g><g transform="translate(105,196) scale(0.07,0.07)"><g transform="" style="fill: rgb(51, 63, 112);">
<g>
	<path d="M65.625,0H0v100h65.625c9.505,0,17.611-3.354,24.316-10.059C96.646,83.236,100,75.13,100,65.625v-31.25
		c0-9.505-3.354-17.611-10.059-24.316C83.236,3.354,75.13,0,65.625,0z"/>
</g>
</g></g><g transform="translate(126,196) scale(0.07,0.07)"><g transform="" style="fill: rgb(51, 63, 112);">
<g>
	<path d="M100,0H0v65.625c0,9.505,3.353,17.611,10.059,24.316C16.765,96.646,24.87,100,34.375,100H100V0z"/>
</g>
</g></g><g transform="translate(133,196) scale(0.07,0.07)"><g transform="" style="fill: rgb(51, 63, 112);">
<rect width="100" height="100"/>
</g></g><g transform="translate(140,196) scale(0.07,0.07)"><g transform="" style="fill: rgb(51, 63, 112);">
<rect width="100" height="100"/>
</g></g><g transform="translate(147,196) scale(0.07,0.07)"><g transform="" style="fill: rgb(51, 63, 112);">
<g>
	<path d="M100,0H0v100h65.625c9.505,0,17.611-3.354,24.316-10.059C96.646,83.236,100,75.13,100,65.625V0z"/>
</g>
</g></g><g transform="translate(161,196) scale(0.07,0.07)"><g transform="" style="fill: rgb(51, 63, 112);">
<g>
	<path d="M100,0H0v65.625c0,9.505,3.353,17.611,10.059,24.316C16.765,96.646,24.87,100,34.375,100H100V0z"/>
</g>
</g></g><g transform="translate(168,196) scale(0.07,0.07)"><g transform="" style="fill: rgb(51, 63, 112);">
<rect width="100" height="100"/>
</g></g><g transform="translate(175,196) scale(0.07,0.07)"><g transform="" style="fill: rgb(51, 63, 112);">
<g>
	<path d="M65.625,0H0v100h65.625c9.505,0,17.611-3.354,24.316-10.059C96.646,83.236,100,75.13,100,65.625v-31.25
		c0-9.505-3.354-17.611-10.059-24.316C83.236,3.354,75.13,0,65.625,0z"/>
</g>
</g></g><g transform="translate(189,196) scale(0.07,0.07)"><g transform="" style="fill: rgb(51, 63, 112);">
<g>
	<path d="M100,0H0v65.625c0,9.505,3.353,17.611,10.059,24.316C16.765,96.646,24.87,100,34.375,100H100V0z"/>
</g>
</g></g><g transform="translate(196,196) scale(0.07,0.07)"><g transform="" style="fill: rgb(51, 63, 112);">
<g>
	<path d="M65.625,0H0v100h65.625c9.505,0,17.611-3.354,24.316-10.059C96.646,83.236,100,75.13,100,65.625v-31.25
		c0-9.505-3.354-17.611-10.059-24.316C83.236,3.354,75.13,0,65.625,0z"/>
</g>
</g></g><g transform="translate(0,0) scale(0.49, 0.49)"><g transform=" translate(0,100) scale(1,-1) " style="fill: rgb(51, 63, 112);">
<g>
</g>
<g>
	<path fill="none" d="M15.02,34.145L15.004,85H66.25C76.589,85,85,76.414,85,65.86V15H33.78C23.436,15,15.02,23.586,15.02,34.145z"
		/>
	<path d="M66.25,0H33.78C15.16,0,0.02,15.32,0.02,34.14L0,100h66.25C84.86,100,100,84.68,100,65.86V34.14V0H66.25z M85,65.86
		C85,76.414,76.589,85,66.25,85H15.004l0.016-50.855C15.02,23.586,23.436,15,33.78,15H85V65.86z"/>
</g>
</g></g><g transform="translate(154,0) scale(0.49, 0.49)"><g transform="" style="fill: rgb(51, 63, 112);">
<g>
</g>
<g>
	<path fill="none" d="M15.02,34.145L15.004,85H66.25C76.589,85,85,76.414,85,65.86V15H33.78C23.436,15,15.02,23.586,15.02,34.145z"
		/>
	<path d="M66.25,0H33.78C15.16,0,0.02,15.32,0.02,34.14L0,100h66.25C84.86,100,100,84.68,100,65.86V34.14V0H66.25z M85,65.86
		C85,76.414,76.589,85,66.25,85H15.004l0.016-50.855C15.02,23.586,23.436,15,33.78,15H85V65.86z"/>
</g>
</g></g><g transform="translate(0,154) scale(0.49, 0.49)"><g transform="" style="fill: rgb(51, 63, 112);">
<g>
</g>
<g>
	<path fill="none" d="M15.02,34.145L15.004,85H66.25C76.589,85,85,76.414,85,65.86V15H33.78C23.436,15,15.02,23.586,15.02,34.145z"
		/>
	<path d="M66.25,0H33.78C15.16,0,0.02,15.32,0.02,34.14L0,100h66.25C84.86,100,100,84.68,100,65.86V34.14V0H66.25z M85,65.86
		C85,76.414,76.589,85,66.25,85H15.004l0.016-50.855C15.02,23.586,23.436,15,33.78,15H85V65.86z"/>
</g>
</g></g><g transform="translate(14,14) scale(0.21, 0.21)"><g transform=" translate(0,100) scale(1,-1) " style="fill: rgb(51, 63, 112);">
<g>
</g>
<path d="M72.744-0.021H27.23c-2.341,0-4.612,0.297-6.771,0.875C15.679,2.11,11.418,4.648,8.04,8.09
	c-0.617,0.621-1.206,1.284-1.752,1.96c-3.883,4.767-6.21,10.903-6.21,17.561L0.05,99.979h72.694
	c14.971,0,27.138-12.397,27.138-27.63V27.625v-0.014l0.168-27.617C100.05-0.006,82.107-0.021,72.744-0.021z"/>
</g></g><g transform="translate(168,14) scale(0.21, 0.21)"><g transform="" style="fill: rgb(51, 63, 112);">
<g>
</g>
<path d="M72.744-0.021H27.23c-2.341,0-4.612,0.297-6.771,0.875C15.679,2.11,11.418,4.648,8.04,8.09
	c-0.617,0.621-1.206,1.284-1.752,1.96c-3.883,4.767-6.21,10.903-6.21,17.561L0.05,99.979h72.694
	c14.971,0,27.138-12.397,27.138-27.63V27.625v-0.014l0.168-27.617C100.05-0.006,82.107-0.021,72.744-0.021z"/>
</g></g><g transform="translate(14,168) scale(0.21, 0.21)"><g transform="" style="fill: rgb(51, 63, 112);">
<g>
</g>
<path d="M72.744-0.021H27.23c-2.341,0-4.612,0.297-6.771,0.875C15.679,2.11,11.418,4.648,8.04,8.09
	c-0.617,0.621-1.206,1.284-1.752,1.96c-3.883,4.767-6.21,10.903-6.21,17.561L0.05,99.979h72.694
	c14.971,0,27.138-12.397,27.138-27.63V27.625v-0.014l0.168-27.617C100.05-0.006,82.107-0.021,72.744-0.021z"/>
</g></g></g></svg>